<svg width="18" height="19" viewBox="0 0 18 19" fill="none" xmlns="http://www.w3.org/2000/svg">
<path d="M7.84009 7.25918C7.84048 6.59085 8.03902 5.93764 8.41061 5.38214C8.78219 4.82663 9.31014 4.39377 9.92771 4.13828C10.5453 3.88279 11.2247 3.81615 11.8802 3.94677C12.5356 4.07739 13.1376 4.39942 13.6101 4.87214C14.0825 5.34486 14.4042 5.94704 14.5344 6.60256C14.6647 7.25807 14.5976 7.93749 14.3418 8.55491C14.0859 9.17233 13.6527 9.70003 13.097 10.0713C12.5413 10.4426 11.888 10.6407 11.2196 10.6407C10.7757 10.6407 10.336 10.5532 9.92589 10.3833C9.51574 10.2133 9.14309 9.96419 8.82924 9.65016C8.51539 9.33613 8.2665 8.96334 8.09678 8.55309C7.92705 8.14283 7.83983 7.70316 7.84009 7.25918Z" fill="#D2D6E1"/>
<path d="M6.75935 7.25912C6.82441 7.25912 6.88554 7.25912 6.95652 7.24926C6.95961 6.32272 7.26351 5.42225 7.8225 4.68333C8.38149 3.9444 9.16534 3.407 10.0561 3.15199C9.91888 2.52956 9.60844 1.95863 9.16063 1.50509C8.71282 1.05154 8.14587 0.73388 7.52525 0.588763C6.90462 0.443645 6.2556 0.47699 5.65311 0.684948C5.05062 0.892906 4.51922 1.267 4.12025 1.76405C3.72127 2.2611 3.47099 2.86084 3.39828 3.49405C3.32558 4.12726 3.43341 4.76812 3.70935 5.34266C3.98528 5.9172 4.41806 6.402 4.95774 6.74111C5.49741 7.08021 6.12198 7.25979 6.75935 7.25912Z" fill="#D2D6E1"/>
<path d="M5.15018 12.431C6.14784 11.4295 7.50065 10.8626 8.91423 10.8536C8.01991 10.2768 7.3725 9.38762 7.09826 8.35938H4.50542C3.31033 8.3599 2.16436 8.83501 1.31949 9.68026C0.474614 10.5255 -1.14335e-07 11.6717 0 12.8668L0 14.5565C-4.55281e-07 14.6305 0.0145998 14.7037 0.0429634 14.7721C0.071327 14.8404 0.112896 14.9024 0.165286 14.9546C0.217677 15.0068 0.279858 15.0482 0.348264 15.0763C0.41667 15.1044 0.489956 15.1188 0.563917 15.1185H3.68912C3.90449 14.0997 4.41223 13.1657 5.15018 12.431Z" fill="#D2D6E1"/>
<path d="M8.96587 11.739C8.37404 11.739 7.78802 11.8556 7.24127 12.0822C6.69451 12.3087 6.19775 12.6407 5.77936 13.0593C5.36097 13.4779 5.02914 13.9748 4.80284 14.5217C4.57654 15.0685 4.46019 15.6546 4.46045 16.2464V17.9362C4.46045 18.0857 4.51986 18.2292 4.62562 18.3349C4.73137 18.4407 4.87481 18.5001 5.02437 18.5001H17.4167C17.4907 18.5001 17.5639 18.4855 17.6322 18.4571C17.7006 18.4288 17.7626 18.3872 17.8148 18.3348C17.867 18.2824 17.9084 18.2202 17.9365 18.1518C17.9646 18.0834 17.9789 18.0101 17.9787 17.9362V16.2464C17.9789 15.6546 17.8626 15.0685 17.6363 14.5217C17.41 13.9748 17.0782 13.4779 16.6598 13.0593C16.2414 12.6407 15.7446 12.3087 15.1979 12.0822C14.6511 11.8556 14.0651 11.739 13.4733 11.739H8.96587Z" fill="#D2D6E1"/>
</svg>
