<svg width="22" height="7" viewBox="0 0 22 7" fill="none" xmlns="http://www.w3.org/2000/svg">
<path d="M0.867187 2.66016L8.77734 5.87109C9.39844 6.12891 10.0195 6.375 10.6055 6.375C11.1914 6.375 11.8242 6.12891 12.4336 5.87109L20.3438 2.66016C20.8594 2.44922 21.2109 1.99219 21.2109 1.46484C21.2109 0.609375 20.5781 0 19.7812 0C19.3711 0 18.8203 0.234375 18.4219 0.398438L10.6055 3.5625L2.78906 0.398438C2.39062 0.234375 1.85156 0 1.41797 0C0.632812 0 0 0.609375 0 1.46484C0 1.99219 0.351562 2.44922 0.867187 2.66016Z" fill="#9BA5BF"/>
</svg>
