<svg width="22" height="7" viewBox="0 0 22 7" fill="none" xmlns="http://www.w3.org/2000/svg">
<path d="M20.3437 3.71484L12.4336 0.503907C11.8125 0.246095 11.1914 8.75935e-07 10.6055 9.2716e-07C10.0195 9.78384e-07 9.38672 0.246095 8.77734 0.503907L0.867187 3.71485C0.351562 3.92578 -1.74163e-07 4.38281 -1.28061e-07 4.91016C-5.32733e-08 5.76563 0.632812 6.375 1.42969 6.375C1.83984 6.375 2.39062 6.14063 2.78906 5.97656L10.6055 2.8125L18.4219 5.97656C18.8203 6.14063 19.3594 6.375 19.793 6.375C20.5781 6.375 21.2109 5.76562 21.2109 4.91016C21.2109 4.38281 20.8594 3.92578 20.3437 3.71484Z" fill="#9BA5BF"/>
</svg>
