<svg width="24" height="24" viewBox="0 0 24 24" fill="none" xmlns="http://www.w3.org/2000/svg">
<path d="M7.3691 10.285C7.37228 9.28507 7.77174 8.32715 8.47995 7.62119C9.18816 6.91523 10.1473 6.51881 11.1473 6.51882H15.4323V2.57006C15.4323 2.23235 15.3658 1.89795 15.2365 1.58598C15.1072 1.27401 14.9177 0.99059 14.6787 0.751906C14.4398 0.513223 14.1562 0.323968 13.8441 0.194952C13.5321 0.0659359 13.1976 -0.000314491 12.8599 1.12238e-06H2.57006C1.88844 1.12238e-06 1.23473 0.270778 0.752754 0.752757C0.270775 1.23474 0 1.88844 0 2.57006V11.1425C0 11.48 0.066477 11.8142 0.195634 12.126C0.324792 12.4379 0.514102 12.7212 0.752754 12.9598C0.991405 13.1985 1.27473 13.3878 1.58654 13.5169C1.89835 13.6461 2.23255 13.7126 2.57006 13.7126H3.42754V15.4276C3.42788 15.5866 3.47243 15.7424 3.55624 15.8776C3.64004 16.0127 3.75978 16.122 3.90209 16.193C4.04439 16.264 4.20364 16.294 4.36204 16.2798C4.52043 16.2655 4.67174 16.2074 4.79904 16.1121L7.3691 14.1906V10.285Z" fill="#474466"/>
<path d="M23.9974 10.285C23.9955 9.60438 23.724 8.95229 23.2423 8.47149C22.7606 7.99068 22.108 7.72036 21.4274 7.71973H11.1472C10.4651 7.72036 9.81116 7.9916 9.32887 8.47389C8.84657 8.95618 8.57534 9.61013 8.57471 10.2922V18.8622C8.57661 19.5433 8.84848 20.1957 9.33071 20.6766C9.81293 21.1575 10.4662 21.4275 11.1472 21.4275H15.999L19.1984 23.8294C19.3257 23.9248 19.477 23.9828 19.6354 23.9971C19.7938 24.0114 19.9531 23.9813 20.0954 23.9103C20.2377 23.8393 20.3574 23.7301 20.4412 23.5949C20.525 23.4597 20.5696 23.3039 20.5699 23.1449V21.4299H21.4274C21.7651 21.4299 22.0995 21.3633 22.4115 21.234C22.7234 21.1047 23.0069 20.9152 23.2455 20.6763C23.4842 20.4374 23.6735 20.1538 23.8025 19.8417C23.9315 19.5296 23.9978 19.1951 23.9974 18.8574V10.285Z" fill="#474466"/>
</svg>
