<svg width="6" height="6" viewBox="0 0 6 6" fill="none" xmlns="http://www.w3.org/2000/svg">
<path d="M2.98765 3.59002C2.96499 3.62249 2.9404 3.65357 2.91402 3.6831L0.749479 5.84754C0.709531 5.89624 0.659064 5.93526 0.60187 5.96165C0.544677 5.98804 0.482245 6.00113 0.419267 5.99992C0.356288 5.99872 0.294402 5.98326 0.238258 5.9547C0.182115 5.92614 0.133175 5.88523 0.0951164 5.83504C0.0362784 5.76123 0.00423754 5.66964 0.00423754 5.57525C0.00423754 5.48086 0.0362784 5.38927 0.0951164 5.31546C0.125254 5.27999 0.157253 5.24613 0.190978 5.21405L2.31384 3.08573C2.35329 3.05013 2.38998 3.01158 2.42359 2.97042C2.3883 2.95838 2.35504 2.94105 2.32495 2.91902C1.59696 2.19569 0.869423 1.47004 0.142353 0.742074C0.0922209 0.698216 0.0533312 0.642982 0.0289426 0.581001C0.00455387 0.519019 -0.00462346 0.452095 0.00217958 0.385836C0.00898261 0.319578 0.0315678 0.255914 0.0680428 0.200181C0.104518 0.144448 0.15382 0.0982686 0.211818 0.065512C0.293541 0.0140494 0.390857 -0.00679206 0.486489 0.00668745C0.582122 0.020167 0.669884 0.0670954 0.734197 0.139142C0.959264 0.360032 1.18016 0.5837 1.40245 0.805979L2.92096 2.31331C2.94734 2.34284 2.97193 2.37392 2.9946 2.40639C3.0335 2.36888 3.06128 2.34526 3.08629 2.32026C3.79854 1.60711 4.51265 0.89026 5.2286 0.169705C5.26905 0.11984 5.31949 0.0789971 5.37668 0.0498061C5.43386 0.0206151 5.49653 0.00372305 5.56064 0.000217512C5.64481 -0.00250199 5.72782 0.020333 5.79874 0.0657148C5.86967 0.111097 5.92519 0.176897 5.95799 0.254449C5.99448 0.326759 6.00766 0.408602 5.99572 0.488712C5.98378 0.568822 5.9473 0.643262 5.8913 0.701786C5.8649 0.732349 5.83573 0.760134 5.80794 0.789308L3.68369 2.91763C3.6541 2.94265 3.62302 2.96585 3.59061 2.98709L3.67952 3.08295C4.40196 3.80165 5.12162 4.52174 5.83851 5.24322C5.88479 5.28094 5.92243 5.32815 5.94889 5.38167C5.97534 5.4352 5.98998 5.49378 5.99183 5.55345C5.99367 5.61312 5.98267 5.6725 5.95958 5.72755C5.93648 5.7826 5.90182 5.83205 5.85796 5.87255C5.82033 5.91206 5.77506 5.94352 5.72491 5.96501C5.67476 5.9865 5.62076 5.99758 5.5662 5.99758C5.51164 5.99758 5.45764 5.9865 5.40749 5.96501C5.35734 5.94352 5.31208 5.91206 5.27445 5.87255C5.06466 5.66972 4.85766 5.45578 4.65621 5.25573L3.05989 3.66226C3.046 3.64282 3.02655 3.62475 2.98765 3.59002Z" fill="#9BA5BF"/>
</svg>
