<svg width="17" height="21" viewBox="0 0 17 21" fill="none" xmlns="http://www.w3.org/2000/svg">
<path d="M5.15802 0C4.97237 0 4.79431 0.0737511 4.66304 0.205029C4.53176 0.336307 4.45801 0.514359 4.45801 0.700014C4.45801 0.88567 4.53176 1.06372 4.66304 1.195C4.79431 1.32628 4.97237 1.40003 5.15802 1.40003H13.7917C14.163 1.40003 14.5191 1.54753 14.7817 1.81009C15.0442 2.07264 15.1917 2.42875 15.1917 2.80006V17.0503C15.1917 17.236 15.2655 17.4141 15.3968 17.5453C15.528 17.6766 15.7061 17.7504 15.8917 17.7504C16.0774 17.7504 16.2554 17.6766 16.3867 17.5453C16.518 17.4141 16.5918 17.236 16.5918 17.0503V2.80006C16.5918 2.05744 16.2968 1.34523 15.7716 0.820118C15.2465 0.295005 14.5343 0 13.7917 0H5.15802Z" fill="#9154FD"/>
<path fill-rule="evenodd" clip-rule="evenodd" d="M11.9702 2.50317H0V18.9C0 19.457 0.221254 19.9911 0.615088 20.385C1.00892 20.7788 1.54308 21.0001 2.10004 21.0001H11.9702C12.5272 21.0001 13.0614 20.7788 13.4552 20.385C13.849 19.9911 14.0703 19.457 14.0703 18.9V4.60322C14.0703 4.04625 13.849 3.5121 13.4552 3.11826C13.0614 2.72443 12.5272 2.50317 11.9702 2.50317ZM1.40003 18.9V3.9032H11.9702C12.1559 3.9032 12.334 3.97695 12.4652 4.10823C12.5965 4.23951 12.6703 4.41756 12.6703 4.60322V18.9C12.6703 19.0857 12.5965 19.2637 12.4652 19.395C12.334 19.5263 12.1559 19.6 11.9702 19.6H2.10004C1.91439 19.6 1.73634 19.5263 1.60506 19.395C1.47378 19.2637 1.40003 19.0857 1.40003 18.9Z" fill="#9154FD"/>
</svg>
