<svg width="15" height="14" viewBox="0 0 15 14" fill="none" xmlns="http://www.w3.org/2000/svg">
<path d="M15 10.179V12.3619C14.9995 12.7962 14.83 13.2126 14.5286 13.5197C14.2272 13.8268 13.8186 13.9995 13.3924 14H1.60765C1.18142 13.9995 0.772776 13.8268 0.471385 13.5197C0.169994 13.2126 0.000467103 12.7962 0 12.3619L0 10.179C0 10.0343 0.0564279 9.8955 0.15687 9.79315C0.257312 9.69081 0.393541 9.63332 0.535588 9.63332C0.677635 9.63332 0.813864 9.69081 0.914306 9.79315C1.01475 9.8955 1.07118 10.0343 1.07118 10.179V12.3619C1.07118 12.505 1.12695 12.6422 1.22624 12.7434C1.32552 12.8445 1.46018 12.9014 1.60059 12.9014H13.3924C13.5328 12.9014 13.6674 12.8445 13.7667 12.7434C13.866 12.6422 13.9218 12.505 13.9218 12.3619V10.179C13.9218 10.0343 13.9782 9.8955 14.0786 9.79315C14.1791 9.69081 14.3153 9.63332 14.4574 9.63332C14.5994 9.63332 14.7356 9.69081 14.8361 9.79315C14.9365 9.8955 14.9929 10.0343 14.9929 10.179H15ZM7.12059 10.019C7.16992 10.0707 7.22891 10.1117 7.29408 10.1398C7.35924 10.1678 7.42926 10.1822 7.5 10.1822C7.57074 10.1822 7.64076 10.1678 7.70592 10.1398C7.77109 10.1117 7.83008 10.0707 7.87941 10.019L10.5565 7.28949C10.6571 7.1872 10.7137 7.04837 10.7139 6.90354C10.7141 6.75871 10.6577 6.61974 10.5574 6.51721C10.457 6.41468 10.3207 6.35698 10.1786 6.35682C10.0364 6.35665 9.90004 6.41402 9.79941 6.51631L8.03471 8.31441V0.546622C8.03471 0.401649 7.97819 0.262613 7.87758 0.160102C7.77697 0.0575904 7.64052 0 7.49824 0C7.35596 0 7.2195 0.0575904 7.11889 0.160102C7.01829 0.262613 6.96176 0.401649 6.96176 0.546622V8.31441L5.19706 6.51631C5.09643 6.41378 4.95995 6.35618 4.81765 6.35618C4.67534 6.35618 4.53886 6.41378 4.43824 6.51631C4.33761 6.61884 4.28108 6.7579 4.28108 6.9029C4.28108 7.0479 4.33761 7.18696 4.43824 7.28949L7.12059 10.019Z" fill="#9154FD"/>
</svg>
