<svg width="22" height="14" viewBox="0 0 22 14" fill="none" xmlns="http://www.w3.org/2000/svg">
<path id="Eye" d="M0.0812566 7.16215C1.09583 9.21702 2.65463 10.945 4.58312 12.1527C6.51161 13.3604 8.73365 14 11.0004 14C13.2672 14 15.4893 13.3604 17.4178 12.1527C19.3462 10.945 20.905 9.21702 21.9196 7.16215L22 6.99919L21.9196 6.83666C20.9184 4.81283 19.3902 3.10515 17.5004 1.89848C15.5532 0.658057 13.3002 3.6742e-07 11.0004 3.6742e-07C8.7007 3.6742e-07 6.44766 0.658057 4.50048 1.89848C2.6105 3.10506 1.08212 4.81275 0.0808193 6.83666L9.06086e-07 6.99919L0.0812566 7.16215ZM11.0004 3.34216C11.7139 3.34216 12.4114 3.55664 13.0047 3.95848C13.5979 4.36032 14.0603 4.93147 14.3334 5.5997C14.6064 6.26794 14.6779 7.00324 14.5387 7.71264C14.3995 8.42203 14.0559 9.07365 13.5514 9.58509C13.0468 10.0965 12.404 10.4448 11.7042 10.5859C11.0044 10.7271 10.2791 10.6546 9.61989 10.3778C8.9607 10.101 8.39728 9.63232 8.00087 9.03092C7.60447 8.42953 7.39289 7.72248 7.39289 6.99919C7.39393 6.02961 7.77435 5.10004 8.45067 4.41444C9.12699 3.72885 10.044 3.34321 11.0004 3.34216Z" fill="#E9EDFC"/>
</svg>
