<svg width="21" height="21" viewBox="0 0 21 21" fill="none" xmlns="http://www.w3.org/2000/svg">
<path d="M10.2556 1.84971C12.9891 1.84971 13.3179 1.84971 14.3867 1.91137C15.3937 1.95248 15.9281 2.13745 16.298 2.26076C16.7707 2.44573 17.1201 2.67181 17.4695 3.0212C17.8395 3.39114 18.045 3.71998 18.23 4.19269C18.3738 4.56263 18.5382 5.09699 18.5794 6.10406C18.6205 7.19333 18.641 7.50162 18.641 10.2351C18.641 12.9686 18.641 13.2974 18.5794 14.3661C18.5382 15.3732 18.3533 15.9075 18.23 16.2775C18.045 16.7502 17.8189 17.0996 17.4695 17.449C17.0996 17.8189 16.7707 18.0244 16.298 18.2094C15.9281 18.3533 15.3937 18.5177 14.3867 18.5588C13.2974 18.5999 12.9891 18.6205 10.2556 18.6205C7.52217 18.6205 7.19333 18.6205 6.12461 18.5588C5.11754 18.5177 4.58318 18.3327 4.21324 18.2094C3.74053 18.0244 3.39114 17.7984 3.04175 17.449C2.67181 17.079 2.46629 16.7502 2.28131 16.2775C2.13745 15.9075 1.97303 15.3732 1.93192 14.3661C1.84971 13.2974 1.84971 12.9891 1.84971 10.2351C1.84971 7.48107 1.84971 7.17278 1.91137 6.10406C1.95248 5.09699 2.13745 4.56263 2.26076 4.19269C2.44573 3.71998 2.67181 3.37059 3.0212 3.0212C3.37059 2.67181 3.71998 2.44573 4.19269 2.26076C4.56263 2.1169 5.09699 1.95248 6.10406 1.91137C7.19333 1.84971 7.50162 1.84971 10.2556 1.84971ZM10.2556 0C7.46051 0 7.13168 0 6.02185 0.0616572C4.93257 0.102762 4.19269 0.287733 3.53501 0.534362C2.85678 0.801543 2.28131 1.15093 1.7264 1.7264C1.17149 2.30187 0.801543 2.85678 0.534362 3.53501C0.287733 4.19269 0.102762 4.93257 0.0616571 6.02185C0 7.11112 0 7.46052 0 10.2351C0 13.0097 0 13.359 0.0616571 14.4689C0.102762 15.5582 0.287733 16.298 0.534362 16.9557C0.801543 17.6339 1.15093 18.2094 1.7264 18.7643C2.30187 19.3398 2.87733 19.6892 3.53501 19.9564C4.19269 20.203 4.93257 20.388 6.02185 20.4291C7.11112 20.4702 7.46051 20.4907 10.2556 20.4907C13.0508 20.4907 13.3796 20.4907 14.4894 20.4291C15.5787 20.388 16.3186 20.203 16.9763 19.9564C17.6545 19.6892 18.23 19.3398 18.7849 18.7643C19.3603 18.1889 19.7097 17.6134 19.9769 16.9557C20.2235 16.298 20.4085 15.5582 20.4496 14.4689C20.4907 13.3796 20.5113 13.0302 20.5113 10.2351C20.5113 7.43996 20.5113 7.11112 20.4496 6.0013C20.4085 4.91202 20.2235 4.17213 19.9769 3.51446C19.7097 2.83623 19.3603 2.26076 18.7849 1.70585C18.2094 1.13038 17.6339 0.801543 16.9557 0.534362C16.298 0.287733 15.5582 0.102762 14.4689 0.0616572C13.3796 0 13.0302 0 10.2556 0ZM10.2556 4.97368C7.35775 4.97368 4.99423 7.3372 4.99423 10.2351C4.99423 13.133 7.35775 15.4965 10.2556 15.4965C13.1535 15.4965 15.517 13.1535 15.517 10.2351C15.517 7.31665 13.1535 4.97368 10.2556 4.97368ZM10.2556 13.6673C8.36482 13.6673 6.84394 12.1465 6.84394 10.2556C6.84394 8.36482 8.36482 6.84394 10.2556 6.84394C12.1465 6.84394 13.6673 8.34427 13.6673 10.2351C13.6673 12.1259 12.1465 13.6673 10.2556 13.6673ZM16.9557 4.76815C16.9557 5.44638 16.4008 6.0013 15.7226 6.0013C15.0443 6.0013 14.4894 5.44638 14.4894 4.76815C14.4894 4.08992 15.0443 3.53501 15.7226 3.53501C16.4008 3.53501 16.9557 4.08992 16.9557 4.76815Z" fill="#9BA5BF"/>
</svg>
