<svg width="18" height="11" viewBox="0 0 18 11" fill="none" xmlns="http://www.w3.org/2000/svg">
<path d="M17.4138 0.175056C17.2362 0.0725302 17.0348 0.0185547 16.8298 0.0185547C16.6247 0.0185547 16.4233 0.0725302 16.2457 0.175056L12.5876 2.27051V8.74081L16.2457 10.8268C16.4236 10.9286 16.6251 10.982 16.83 10.9816C17.035 10.9812 17.2363 10.9271 17.4138 10.8246C17.5913 10.7221 17.7388 10.5749 17.8417 10.3976C17.9445 10.2203 17.999 10.0191 17.9998 9.81413V1.1858C17.9992 0.980756 17.9448 0.779451 17.842 0.602058C17.7392 0.424665 17.5915 0.277413 17.4138 0.175056Z" fill="#D2D6E1"/>
<path d="M11.2832 0.632146C11.0571 0.405166 10.7502 0.276982 10.4298 0.275635H1.21365C0.892081 0.276635 0.583964 0.404823 0.356576 0.632211C0.129188 0.859599 0.00100024 1.16772 0 1.48929L0 9.51838C0 9.84026 0.127867 10.149 0.355471 10.3766C0.583076 10.6042 0.891774 10.732 1.21365 10.732H10.4298C10.7517 10.732 11.0604 10.6042 11.288 10.3766C11.5156 10.149 11.6435 9.84026 11.6435 9.51838V1.48929C11.6433 1.32967 11.6113 1.17169 11.5494 1.02454C11.4876 0.87739 11.3971 0.744007 11.2832 0.632146ZM8.2832 4.71306C8.03183 4.71344 7.78599 4.63924 7.5768 4.49986C7.36761 4.36048 7.20447 4.16218 7.10801 3.93005C7.01156 3.69792 6.98613 3.4424 7.03494 3.19581C7.08375 2.94922 7.2046 2.72266 7.38222 2.54478C7.55983 2.3669 7.78622 2.2457 8.03273 2.19652C8.27924 2.14735 8.5348 2.1724 8.76708 2.2685C8.99935 2.36461 9.19789 2.52746 9.33759 2.73644C9.47728 2.94542 9.55184 3.19114 9.55184 3.44252C9.55184 3.77916 9.41824 4.10204 9.18038 4.34026C8.94252 4.57848 8.61984 4.71256 8.2832 4.71306Z" fill="#D2D6E1"/>
</svg>
