<svg width="14" height="18" viewBox="0 0 14 18" fill="none" xmlns="http://www.w3.org/2000/svg">
<path d="M9.11035 3.46387C9.6167 2.84961 9.97363 2.01123 9.97363 1.16455C9.97363 1.04834 9.96533 0.932129 9.94873 0.84082C9.11865 0.874023 8.12256 1.38867 7.5332 2.08594C7.06006 2.61719 6.62842 3.46387 6.62842 4.31055C6.62842 4.44336 6.65332 4.56787 6.66162 4.60938C6.71143 4.61768 6.79443 4.63428 6.88574 4.63428C7.62451 4.63428 8.5542 4.13623 9.11035 3.46387ZM9.69141 4.80859C8.45459 4.80859 7.44189 5.56396 6.79443 5.56396C6.10547 5.56396 5.20898 4.8584 4.12988 4.8584C2.07959 4.8584 0.00439453 6.55176 0.00439453 9.73926C0.00439453 11.7314 0.768066 13.8315 1.72266 15.1846C2.53613 16.3301 3.25 17.2681 4.2793 17.2681C5.29199 17.2681 5.74023 16.5957 7.00195 16.5957C8.28027 16.5957 8.5708 17.2515 9.69141 17.2515C10.8037 17.2515 11.5425 16.2305 12.248 15.2261C13.0283 14.0723 13.3604 12.9517 13.3687 12.8936C13.3022 12.877 11.1772 12.0054 11.1772 9.57324C11.1772 7.46484 12.8457 6.51855 12.9453 6.44385C11.8413 4.8584 10.1562 4.80859 9.69141 4.80859Z" fill="white"/>
</svg>
