<svg width="18" height="19" viewBox="0 0 18 19" fill="none" xmlns="http://www.w3.org/2000/svg">
<path d="M11.717 8.42729L15.1473 4.99928H16.1147C16.1845 4.99876 16.2527 4.97908 16.3121 4.94241C16.3714 4.90573 16.4195 4.85347 16.4512 4.79131L17.9491 1.7956C17.9847 1.72541 17.9971 1.64572 17.9845 1.56803C17.9719 1.49033 17.9349 1.41865 17.879 1.36331L17.1289 0.613211C17.0733 0.557556 17.0017 0.520825 16.924 0.508239C16.8464 0.495654 16.7668 0.507855 16.6966 0.543108L13.7008 2.04096C13.6387 2.07142 13.5863 2.11862 13.5496 2.17725C13.5129 2.23587 13.4932 2.30359 13.4929 2.37278V3.34253L10.0415 6.79624L11.717 8.42729Z" fill="#D2D6E1"/>
<path d="M5.80889 10.0327L0.644682 14.6922C0.237432 15.1012 0.00878906 15.6549 0.00878906 16.2321C0.00878906 16.8093 0.237432 17.363 0.644682 17.772L0.714785 17.8468C1.12287 18.2572 1.67601 18.4905 2.2547 18.4964C2.54352 18.4967 2.82949 18.4394 3.0959 18.3278C3.36231 18.2163 3.60382 18.0527 3.8063 17.8468L8.47979 12.7947L5.80889 10.0327Z" fill="#D2D6E1"/>
<path d="M17.4087 15.5941L7.61308 6.06488C7.48391 5.93756 7.38703 5.78122 7.33053 5.60887C7.27403 5.43653 7.25954 5.25317 7.28828 5.07409C7.40966 4.44885 7.37531 3.80334 7.18826 3.19451C7.00121 2.58568 6.66721 2.03223 6.21571 1.583C5.88534 1.24259 5.49022 0.97172 5.0536 0.786317C4.61698 0.600913 4.14768 0.504726 3.67333 0.503418C2.84583 0.523266 2.04875 0.819393 1.40902 1.34465C1.36251 1.38269 1.32579 1.43132 1.30194 1.48647C1.27808 1.54162 1.26778 1.60168 1.2719 1.66163C1.27602 1.72157 1.29444 1.77966 1.32561 1.83103C1.35678 1.88239 1.39981 1.92555 1.45108 1.95687L3.74577 3.33088C3.71233 3.6704 3.594 3.99604 3.40166 4.27781C3.20932 4.55958 2.94917 4.78842 2.64516 4.94324L0.595833 3.71644C0.536229 3.68433 0.469585 3.66753 0.401883 3.66753C0.33418 3.66753 0.267536 3.68433 0.207933 3.71644C0.150816 3.74633 0.102337 3.7904 0.067147 3.84441C0.031957 3.89842 0.0112362 3.96057 0.00697229 4.0249C-0.0243315 4.53468 0.0500048 5.04543 0.225322 5.52514C0.400639 6.00485 0.673157 6.44317 1.02579 6.81263C1.37733 7.18216 1.80037 7.4763 2.26917 7.67716C2.73798 7.87802 3.24275 7.9814 3.75278 7.98101C4.01299 7.9654 4.27035 7.91832 4.51923 7.8408C4.71344 7.79084 4.91747 7.79375 5.11018 7.84922C5.30288 7.90468 5.47724 8.0107 5.61516 8.15626L15.1024 17.9098C15.2832 18.0948 15.4991 18.242 15.7374 18.3427C15.9757 18.4434 16.2317 18.4956 16.4904 18.4964C16.6891 18.4973 16.886 18.4588 17.0697 18.3831C17.2534 18.3075 17.4203 18.1961 17.5607 18.0555C17.7011 17.9149 17.8122 17.7478 17.8876 17.564C17.963 17.3801 18.0012 17.1832 17.9999 16.9845C18.0022 16.7239 17.9521 16.4655 17.8526 16.2246C17.753 15.9838 17.606 15.7654 17.4204 15.5824L17.4087 15.5941Z" fill="#D2D6E1"/>
</svg>
