<svg width="18" height="19" viewBox="0 0 18 19" fill="none" xmlns="http://www.w3.org/2000/svg">
<path fill-rule="evenodd" clip-rule="evenodd" d="M2.33345 15.421C2.1791 15.5026 1.99911 15.5213 1.83129 15.4731C1.66346 15.4248 1.52087 15.3134 1.43345 15.1622L0.094704 12.838C0.00596578 12.6864 -0.0201734 12.5062 0.0218389 12.3356C0.0638513 12.165 0.170705 12.0175 0.319704 11.9245L1.24895 11.3552C1.41174 11.242 1.5466 11.0933 1.64329 10.9202C1.73997 10.7471 1.79595 10.5542 1.80695 10.3562V8.64398C1.79585 8.44579 1.73961 8.25276 1.64251 8.07962C1.54541 7.90648 1.41003 7.7578 1.2467 7.64497L0.317454 7.07574C0.168455 6.98269 0.0616025 6.8352 0.0195902 6.66463C-0.0224222 6.49406 0.0037153 6.31384 0.0924535 6.16223L1.4312 3.84024C1.51825 3.68868 1.66068 3.5768 1.82853 3.52812C1.99639 3.47944 2.17658 3.49776 2.3312 3.57923L3.28745 4.09897C3.46681 4.18395 3.66318 4.22691 3.86164 4.22457C4.06009 4.22223 4.2554 4.17467 4.4327 4.08548L5.91545 3.23047C6.08136 3.1219 6.22029 2.9769 6.32167 2.80651C6.42305 2.63612 6.48419 2.44483 6.50045 2.24722L6.52745 1.15823C6.53215 0.982348 6.60533 0.81524 6.73141 0.69252C6.85749 0.5698 7.02651 0.501158 7.20245 0.501221H9.8912C10.0668 0.501142 10.2355 0.569484 10.3615 0.691724C10.4875 0.813964 10.5609 0.98049 10.5662 1.15598L10.5932 2.24497C10.61 2.44268 10.6717 2.63398 10.7734 2.80434C10.8752 2.9747 11.0144 3.11965 11.1805 3.22822L12.661 4.08548C12.8383 4.17467 13.0336 4.22223 13.232 4.22457C13.4305 4.22691 13.6268 4.18395 13.8062 4.09897L14.7647 3.58148C14.9191 3.49982 15.099 3.48116 15.2669 3.52941C15.4347 3.57766 15.5773 3.68907 15.6647 3.84024L17.0035 6.16223C17.0929 6.31404 17.1194 6.49479 17.0774 6.6659C17.0353 6.837 16.9281 6.98489 16.7785 7.07797L15.8515 7.64722C15.6878 7.75968 15.5521 7.90827 15.455 8.08148C15.3578 8.2547 15.3018 8.44793 15.2912 8.64624V10.3562C15.3019 10.5543 15.3577 10.7473 15.4544 10.9204C15.5511 11.0936 15.6862 11.2423 15.8492 11.3552L16.7785 11.9245C16.9281 12.0176 17.0353 12.1654 17.0774 12.3365C17.1194 12.5077 17.0929 12.6884 17.0035 12.8402L15.6535 15.1622C15.566 15.3134 15.4234 15.4248 15.2556 15.4731C15.0878 15.5213 14.9078 15.5026 14.7535 15.421L13.795 14.9012C13.6159 14.8164 13.4197 14.7738 13.2216 14.7765C13.0235 14.7793 12.8286 14.8273 12.652 14.917L11.1692 15.772C11.0028 15.8802 10.8633 16.0251 10.7615 16.1955C10.6597 16.3659 10.5983 16.5574 10.582 16.7552L10.555 17.842C10.5503 18.0179 10.4771 18.1849 10.351 18.3077C10.2249 18.4304 10.0559 18.499 9.87995 18.499H7.21145C7.03551 18.499 6.86649 18.4304 6.74041 18.3077C6.61433 18.1849 6.54114 18.0179 6.53645 17.842L6.50945 16.753C6.49303 16.5554 6.43182 16.3642 6.33045 16.1938C6.22909 16.0234 6.09024 15.8784 5.92445 15.7697L4.4417 14.9147C4.26478 14.8245 4.06949 14.7762 3.87091 14.7735C3.67234 14.7707 3.4758 14.8137 3.29645 14.899L2.33345 15.421ZM6.57695 12.9212C7.25374 13.3115 8.03104 13.4924 8.81061 13.4411C9.59017 13.3897 10.337 13.1083 10.9567 12.6326C11.5764 12.1569 12.0412 11.5081 12.2922 10.7682C12.5433 10.0284 12.5694 9.23076 12.3672 8.47611C12.165 7.72147 11.7436 7.0437 11.1563 6.52848C10.569 6.01327 9.84217 5.68374 9.06763 5.58155C8.29308 5.47935 7.50562 5.60909 6.80479 5.95434C6.10395 6.29959 5.5212 6.84486 5.1302 7.52124C4.87036 7.97073 4.70165 8.46702 4.63374 8.98176C4.56582 9.49649 4.60002 10.0196 4.73438 10.5211C4.86875 11.0226 5.10064 11.4927 5.4168 11.9045C5.73296 12.3164 6.12719 12.6619 6.57695 12.9212Z" fill="#D2D6E1"/>
</svg>
