<svg width="23" height="30" viewBox="0 0 23 30" fill="none" xmlns="http://www.w3.org/2000/svg">
<rect width="23" height="30" rx="2" fill="#706F94"/>
<path d="M6.359 12.4C7.063 12.4 7.607 12.568 7.991 12.904C8.38033 13.24 8.575 13.7147 8.575 14.328C8.575 14.968 8.38033 15.4667 7.991 15.824C7.607 16.176 7.063 16.352 6.359 16.352H5.135V18H4.063V12.4H6.359ZM6.303 15.408C6.70833 15.408 7.01767 15.32 7.231 15.144C7.44967 14.968 7.559 14.7067 7.559 14.36C7.559 14.0187 7.44967 13.7627 7.231 13.592C7.01767 13.4213 6.70833 13.336 6.303 13.336H5.135V15.408H6.303ZM11.7894 12.4C12.3494 12.4 12.8508 12.52 13.2934 12.76C13.7361 12.9947 14.0828 13.3253 14.3334 13.752C14.5841 14.1787 14.7094 14.6613 14.7094 15.2C14.7094 15.7387 14.5814 16.2213 14.3254 16.648C14.0748 17.0693 13.7254 17.4 13.2774 17.64C12.8294 17.88 12.3201 18 11.7494 18H9.46144V12.4H11.7894ZM11.8134 17.056C12.1548 17.056 12.4614 16.9787 12.7334 16.824C13.0108 16.664 13.2268 16.4453 13.3814 16.168C13.5361 15.8853 13.6134 15.5653 13.6134 15.208C13.6134 14.8507 13.5334 14.5307 13.3734 14.248C13.2134 13.96 12.9921 13.7387 12.7094 13.584C12.4321 13.424 12.1201 13.344 11.7734 13.344H10.5334V17.056H11.8134ZM15.6489 12.4H19.5129L19.5049 13.336H16.7209V14.848H19.2569V15.784H16.7209V18H15.6489V12.4Z" fill="white"/>
</svg>
