<svg width="94" height="99" viewBox="0 0 94 99" fill="none" xmlns="http://www.w3.org/2000/svg">
<g filter="url(#filter0_dd_108_7746)">
<rect x="10" y="5" width="74" height="74" rx="15" fill="#E9EDFC"/>
<path d="M47.093 41.5008H47.2085C58.6229 41.3843 56.9923 26.1262 56.9923 26.1262C56.5264 15.9347 47.9656 15.993 47.1502 16.0512C46.2767 16.0512 37.7741 15.9347 37.3082 26.1262C37.3082 26.1262 35.6203 41.3843 47.093 41.5008Z" fill="#706F94"/>
<path d="M67.9398 57.4578V57.1666C67.8233 53.8471 67.241 51.5758 63.8642 49.4793C61.1604 47.7592 58.2891 46.2087 56.4338 45.2478C56.1887 45.121 55.9189 45.0493 55.6431 45.0378C55.3674 45.0262 55.0925 45.0752 54.8377 45.1811C54.5829 45.287 54.3543 45.4473 54.168 45.6509C53.9816 45.8544 53.8421 46.0963 53.7591 46.3595L50.9959 55.095C50.9591 55.212 50.8864 55.3144 50.7881 55.3877C50.6898 55.4611 50.571 55.5016 50.4484 55.5037C50.3258 55.5058 50.2056 55.4692 50.1049 55.3992C50.0043 55.3293 49.9281 55.2294 49.8873 55.1137L48.4252 50.9831C48.3394 50.7384 48.3112 50.4772 48.3428 50.2198C48.3743 49.9624 48.4648 49.7158 48.6072 49.4991C51.8591 44.5073 47.8179 44.238 47.092 44.238C46.3661 44.238 42.3248 44.5052 45.5778 49.5001C45.7201 49.7167 45.8104 49.9632 45.8418 50.2204C45.8732 50.4776 45.8447 50.7386 45.7588 50.9831L44.2976 55.1137C44.2568 55.2294 44.1807 55.3293 44.08 55.3992C43.9793 55.4692 43.8592 55.5058 43.7366 55.5037C43.614 55.5016 43.4951 55.4611 43.3969 55.3877C43.2986 55.3144 43.2259 55.212 43.189 55.095L40.4301 46.3719C40.3466 46.1082 40.2063 45.8659 40.0191 45.6622C39.8319 45.4585 39.6024 45.2983 39.3466 45.1929C39.0908 45.0876 38.815 45.0395 38.5386 45.0522C38.2623 45.0649 37.992 45.1381 37.747 45.2665C35.8917 46.2388 33.0215 47.7956 30.3207 49.4793C26.943 51.5758 26.3606 53.9053 26.2441 57.1666V61.8692C26.2441 63.5876 26.9267 65.2355 28.1418 66.4505C29.3568 67.6655 31.0047 68.3481 32.723 68.3481H61.5212C63.2395 68.3481 64.8875 67.6655 66.1025 66.4505C67.3175 65.2355 68.0001 63.5876 68.0001 61.8692V59.4961C67.996 58.7972 67.996 58.1566 67.9398 57.4578Z" fill="#706F94"/>
</g>
<defs>
<filter id="filter0_dd_108_7746" x="0" y="0" width="94" height="99" filterUnits="userSpaceOnUse" color-interpolation-filters="sRGB">
<feFlood flood-opacity="0" result="BackgroundImageFix"/>
<feColorMatrix in="SourceAlpha" type="matrix" values="0 0 0 0 0 0 0 0 0 0 0 0 0 0 0 0 0 0 127 0" result="hardAlpha"/>
<feMorphology radius="10" operator="erode" in="SourceAlpha" result="effect1_dropShadow_108_7746"/>
<feOffset dy="5"/>
<feGaussianBlur stdDeviation="10"/>
<feComposite in2="hardAlpha" operator="out"/>
<feColorMatrix type="matrix" values="0 0 0 0 0.156863 0 0 0 0 0.164706 0 0 0 0 0.286275 0 0 0 0.3 0"/>
<feBlend mode="normal" in2="BackgroundImageFix" result="effect1_dropShadow_108_7746"/>
<feColorMatrix in="SourceAlpha" type="matrix" values="0 0 0 0 0 0 0 0 0 0 0 0 0 0 0 0 0 0 127 0" result="hardAlpha"/>
<feMorphology radius="10" operator="erode" in="SourceAlpha" result="effect2_dropShadow_108_7746"/>
<feOffset dy="15"/>
<feGaussianBlur stdDeviation="7.5"/>
<feComposite in2="hardAlpha" operator="out"/>
<feColorMatrix type="matrix" values="0 0 0 0 0.156863 0 0 0 0 0.164706 0 0 0 0 0.286275 0 0 0 0.15 0"/>
<feBlend mode="normal" in2="effect1_dropShadow_108_7746" result="effect2_dropShadow_108_7746"/>
<feBlend mode="normal" in="SourceGraphic" in2="effect2_dropShadow_108_7746" result="shape"/>
</filter>
</defs>
</svg>
