<svg width="18" height="19" viewBox="0 0 18 19" fill="none" xmlns="http://www.w3.org/2000/svg">
<path d="M17.8724 8.6012L15.1382 12.7989L13.5474 15.2467C13.5096 15.306 13.4641 15.3602 13.4122 15.4077L11.9825 16.744C11.8266 16.8926 11.6193 16.9753 11.4039 16.9746C11.2228 16.9742 11.0467 16.9161 10.9008 16.8089C10.755 16.7016 10.647 16.5508 10.5926 16.3781C10.533 16.1925 10.5408 15.9919 10.6145 15.8114L11.3045 13.9919C11.3283 13.9363 11.3562 13.8824 11.388 13.8309L15.1382 8.08817L15.7189 7.19535C15.841 7.00921 16.0319 6.87907 16.2498 6.83345C16.3078 6.82549 16.3667 6.82549 16.4248 6.83345C16.589 6.83264 16.75 6.87962 16.8881 6.96866L17.6278 7.45584C17.809 7.57786 17.9358 7.76546 17.9814 7.97912C18.027 8.19277 17.9879 8.4158 17.8724 8.6012ZM9.83298 15.5231C9.70343 15.8742 9.69511 16.2586 9.80935 16.615C9.92358 16.9714 10.1538 17.2793 10.4633 17.4897C10.7404 17.6778 11.069 17.7758 11.4039 17.77C11.8283 17.7721 12.2377 17.6129 12.5492 17.3246L13.9869 15.9864C14.0864 15.8936 14.1739 15.7887 14.2474 15.6742L15.1382 14.328V16.221C15.1398 16.4978 15.0866 16.7722 14.9816 17.0284C14.8766 17.2846 14.722 17.5174 14.5266 17.7135C14.3312 17.9097 14.099 18.0652 13.8432 18.1711C13.5874 18.277 13.3132 18.3313 13.0364 18.3308H2.09982C1.54273 18.3303 1.00864 18.1086 0.614903 17.7145C0.221167 17.3204 -2.49314e-07 16.7861 0 16.229L0 2.771C0.000526475 2.21373 0.222136 1.67943 0.616188 1.28538C1.01024 0.891325 1.54454 0.669716 2.10181 0.669189L13.0384 0.669189C13.5955 0.669717 14.1296 0.891389 14.5233 1.2855C14.9171 1.67961 15.1382 2.21391 15.1382 2.771V6.5491C15.0918 6.59538 15.0498 6.64598 15.0129 6.70022L10.6821 13.3695C10.6181 13.4736 10.5642 13.5834 10.521 13.6976L9.83298 15.5231ZM4.20561 4.44728C4.20556 4.50266 4.21643 4.5575 4.23758 4.60868C4.25874 4.65986 4.28977 4.70637 4.3289 4.74555C4.36758 4.7848 4.41372 4.81593 4.4646 4.8371C4.51547 4.85827 4.57007 4.86906 4.62518 4.86884H10.513C10.6196 4.86151 10.7194 4.81401 10.7922 4.73595C10.8651 4.65789 10.9057 4.55507 10.9057 4.44828C10.9057 4.34148 10.8651 4.23867 10.7922 4.1606C10.7194 4.08254 10.6196 4.03505 10.513 4.02772H4.62518C4.57008 4.02772 4.51552 4.03857 4.46462 4.05965C4.41371 4.08074 4.36746 4.11164 4.3285 4.1506C4.28954 4.18956 4.25864 4.23582 4.23755 4.28672C4.21647 4.33763 4.20561 4.39218 4.20561 4.44728ZM4.20561 7.81177C4.20561 7.92323 4.24975 8.03016 4.32838 8.10916C4.40701 8.18816 4.51372 8.2328 4.62518 8.23333H10.513C10.6196 8.226 10.7194 8.1785 10.7922 8.10044C10.8651 8.02238 10.9057 7.91956 10.9057 7.81277C10.9057 7.70597 10.8651 7.60316 10.7922 7.52509C10.7194 7.44703 10.6196 7.39954 10.513 7.39221H4.62518C4.56872 7.39217 4.51283 7.40352 4.46086 7.4256C4.40889 7.44767 4.36191 7.48 4.32273 7.52066C4.28356 7.56133 4.25299 7.60948 4.23287 7.66223C4.21274 7.71499 4.20347 7.77126 4.20561 7.82768V7.81177ZM8.41123 14.5467C8.41149 14.4914 8.40076 14.4365 8.37964 14.3854C8.35853 14.3342 8.32745 14.2878 8.28823 14.2487C8.249 14.2097 8.20241 14.1789 8.15116 14.158C8.0999 14.1371 8.04501 14.1266 7.98967 14.1272H4.62518C4.51864 14.1345 4.41885 14.182 4.34597 14.26C4.27309 14.3381 4.23256 14.4409 4.23256 14.5477C4.23256 14.6545 4.27309 14.7573 4.34597 14.8354C4.41885 14.9135 4.51864 14.9609 4.62518 14.9683H7.98967C8.10148 14.9683 8.2087 14.9239 8.28776 14.8448C8.36681 14.7657 8.41123 14.6585 8.41123 14.5467ZM10.513 11.6058C10.6196 11.5984 10.7194 11.5509 10.7922 11.4729C10.8651 11.3948 10.9057 11.292 10.9057 11.1852C10.9057 11.0784 10.8651 10.9756 10.7922 10.8975C10.7194 10.8195 10.6196 10.772 10.513 10.7647H4.62518C4.51864 10.772 4.41885 10.8195 4.34597 10.8975C4.27309 10.9756 4.23256 11.0784 4.23256 11.1852C4.23256 11.292 4.27309 11.3948 4.34597 11.4729C4.41885 11.5509 4.51864 11.5984 4.62518 11.6058H10.513Z" fill="#D2D6E1"/>
</svg>
