<svg width="16" height="19" viewBox="0 0 16 19" fill="none" xmlns="http://www.w3.org/2000/svg">
<path d="M2.25928 11.0037C2.25928 10.8049 2.18033 10.6143 2.03979 10.4738C1.89924 10.3332 1.70863 10.2543 1.50987 10.2543C1.31111 10.2543 1.1205 10.3332 0.979955 10.4738C0.839413 10.6143 0.760457 10.8049 0.760457 11.0037C0.760457 12.4863 1.20011 13.9357 2.02381 15.1684C2.84751 16.4012 4.01828 17.362 5.38804 17.9294C6.75781 18.4968 8.26507 18.6452 9.7192 18.356C11.1733 18.0667 12.5091 17.3528 13.5574 16.3044C14.6058 15.256 15.3198 13.9203 15.609 12.4662C15.8983 11.012 15.7498 9.50476 15.1824 8.135C14.615 6.76523 13.6542 5.59447 12.4215 4.77076C11.1887 3.94706 9.73938 3.50741 8.25675 3.50741H2.56812L4.29587 1.79045C4.43764 1.64869 4.51728 1.45642 4.51728 1.25593C4.51728 1.05545 4.43764 0.863172 4.29587 0.721407C4.15411 0.579642 3.96184 0.5 3.76135 0.5C3.56087 0.5 3.36859 0.579642 3.22683 0.721407L0.222694 3.72338C0.152171 3.79272 0.096159 3.87541 0.0579251 3.96663C0.0196911 4.05785 0 4.15576 0 4.25466C0 4.35357 0.0196911 4.45148 0.0579251 4.5427C0.096159 4.63391 0.152171 4.7166 0.222694 4.78595L3.22683 7.78792C3.37015 7.9182 3.55813 7.9883 3.75176 7.98368C3.94539 7.97907 4.12981 7.90009 4.26677 7.76313C4.40372 7.62618 4.4827 7.44175 4.48732 7.24812C4.49193 7.05449 4.42183 6.86652 4.29156 6.72319L2.5638 5.00624H8.25675C9.44294 5.00624 10.6025 5.35798 11.5888 6.01699C12.575 6.676 13.3438 7.61268 13.7977 8.70857C14.2516 9.80447 14.3704 11.0104 14.139 12.1738C13.9076 13.3371 13.3364 14.4058 12.4976 15.2446C11.6588 16.0833 10.5902 16.6545 9.4268 16.8859C8.2634 17.1173 7.05751 16.9986 5.96162 16.5446C4.86573 16.0907 3.92905 15.322 3.27004 14.3357C2.61103 13.3494 2.25928 12.1899 2.25928 11.0037Z" fill="#D2D6E1"/>
<path d="M6.75785 14.0013C6.89027 14 7.01996 13.9635 7.13363 13.8955L10.8893 11.6473C10.9993 11.5804 11.0902 11.4864 11.1532 11.3742C11.2163 11.2621 11.2494 11.1356 11.2494 11.0069C11.2494 10.8783 11.2163 10.7517 11.1532 10.6396C11.0902 10.5274 10.9993 10.4334 10.8893 10.3666L7.13363 8.11833C6.982 8.02715 6.80266 7.99342 6.62826 8.0233C6.45409 8.05143 6.29554 8.14045 6.18085 8.27452C6.06616 8.40859 6.00277 8.57901 6.00195 8.75544V13.2476C6.00195 13.4464 6.08091 13.637 6.22145 13.7775C6.36199 13.9181 6.55261 13.997 6.75137 13.997L6.75785 14.0013Z" fill="#D2D6E1"/>
</svg>
