<svg width="11" height="11" viewBox="0 0 11 11" fill="none" xmlns="http://www.w3.org/2000/svg">
<path d="M4.66864 1.04394e-05C3.93166 0.000288116 3.2052 0.175035 2.54866 0.509967C1.89212 0.844898 1.32413 1.33051 0.891129 1.92709C0.458125 2.52368 0.172397 3.2143 0.0573043 3.94251C-0.0577888 4.67072 0.00101984 5.41584 0.228923 6.11696C0.456826 6.81808 0.847354 7.4553 1.36858 7.97651C1.88981 8.49773 2.52694 8.88815 3.22788 9.11586C3.92883 9.34357 4.6737 9.40211 5.40159 9.28668C6.12948 9.17126 6.81974 8.88515 7.41593 8.45175L9.74229 10.7787C9.81003 10.8482 9.89089 10.9035 9.98018 10.9415C10.0695 10.9795 10.1654 10.9994 10.2624 11C10.3595 11.0006 10.4556 10.9819 10.5454 10.9451C10.6352 10.9082 10.7167 10.8539 10.7853 10.7852C10.8539 10.7166 10.9082 10.635 10.9451 10.5452C10.9819 10.4554 11.0006 10.3592 11 10.2622C10.9994 10.1651 10.9795 10.0691 10.9415 9.9798C10.9035 9.89048 10.8482 9.80959 10.7787 9.74182L8.4527 7.41491C8.95964 6.7178 9.26373 5.89388 9.33127 5.03447C9.39881 4.17506 9.22717 3.31373 8.83537 2.54592C8.44357 1.77812 7.84691 1.13383 7.11151 0.684458C6.37611 0.235089 5.5307 -0.0018123 4.66896 1.04394e-05H4.66864ZM4.66864 7.87853C3.92602 7.87946 3.20608 7.62271 2.63152 7.15206C2.05695 6.6814 1.66334 6.02598 1.51778 5.2975C1.37222 4.56902 1.48371 3.81259 1.83326 3.15714C2.18281 2.50169 2.74877 1.98781 3.43467 1.70308C4.12057 1.41835 4.88396 1.38041 5.5947 1.59572C6.30543 1.81102 6.91953 2.26625 7.3323 2.88381C7.74508 3.50136 7.93098 4.24302 7.85832 4.98234C7.78566 5.72166 7.45894 6.4129 6.93384 6.93821C6.33324 7.53967 5.51846 7.87789 4.66864 7.87853Z" fill="#9154FD"/>
</svg>
