<svg width="17" height="21" viewBox="0 0 17 21" fill="none" xmlns="http://www.w3.org/2000/svg">
<path d="M3.78509 20.9999H12.7936C13.2908 21.0006 13.7833 20.9014 14.2429 20.708C14.7024 20.5147 15.1199 20.231 15.4715 19.8731C15.8231 19.5153 16.1019 19.0903 16.2919 18.6227C16.4819 18.155 16.5793 17.6538 16.5787 17.1477V10.0596C16.5796 9.62087 16.4953 9.18633 16.3308 8.78086C16.1662 8.37539 15.9246 8.00699 15.6199 7.69679C15.3151 7.38659 14.9531 7.1407 14.5547 6.97324C14.1563 6.80578 13.7293 6.72005 13.2983 6.72095H11.5571C11.3564 6.72095 11.1638 6.80213 11.0218 6.94661C10.8799 7.0911 10.8001 7.28707 10.8001 7.4914C10.8001 7.69574 10.8799 7.8917 11.0218 8.03619C11.1638 8.18068 11.3564 8.26185 11.5571 8.26185H13.273C13.5053 8.26063 13.7356 8.3063 13.9504 8.39622C14.1653 8.48613 14.3604 8.6185 14.5247 8.78568C14.689 8.95285 14.819 9.15151 14.9074 9.37017C14.9957 9.58883 15.0406 9.82314 15.0394 10.0596V17.1734C15.0407 17.4772 14.9828 17.7784 14.8691 18.0594C14.7554 18.3404 14.5882 18.5957 14.377 18.8106C14.1659 19.0255 13.915 19.1957 13.6389 19.3114C13.3628 19.4271 13.0669 19.486 12.7684 19.4847H3.78509C3.4865 19.486 3.19062 19.4271 2.91452 19.3114C2.63842 19.1957 2.38756 19.0255 2.17642 18.8106C1.96529 18.5957 1.79805 18.3404 1.68436 18.0594C1.57068 17.7784 1.51279 17.4772 1.51404 17.1734V10.0596C1.51285 9.82314 1.55772 9.58883 1.64606 9.37017C1.73441 9.15151 1.86447 8.95285 2.02874 8.78568C2.193 8.6185 2.3882 8.48613 2.60304 8.39622C2.81789 8.3063 3.04812 8.26063 3.28041 8.26185H4.99632C5.19709 8.26185 5.38964 8.18068 5.53161 8.03619C5.67358 7.8917 5.75333 7.69574 5.75333 7.4914C5.75333 7.28707 5.67358 7.0911 5.53161 6.94661C5.38964 6.80213 5.19709 6.72095 4.99632 6.72095H3.28041C2.84937 6.72005 2.4224 6.80578 2.024 6.97324C1.6256 7.1407 1.26362 7.38659 0.958829 7.69679C0.654037 8.00699 0.412439 8.37539 0.247898 8.78086C0.083358 9.18633 -0.000883894 9.62087 6.99281e-06 10.0596V17.1734C6.99281e-06 19.2793 1.69068 20.9999 3.78509 20.9999Z" fill="#9154FD"/>
<path d="M4.41756 5.04545L7.39516 2.45161V12.6729C7.39516 12.8772 7.47492 13.0732 7.61689 13.2177C7.75885 13.3622 7.9514 13.4433 8.15218 13.4433C8.35295 13.4433 8.5455 13.3622 8.68747 13.2177C8.82944 13.0732 8.90919 12.8772 8.90919 12.6729V2.45161L11.8868 5.04545C12.0286 5.16469 12.2076 5.22845 12.3915 5.22522C12.6098 5.21688 12.817 5.12519 12.9719 4.96841C13.1018 4.81492 13.1668 4.61531 13.1526 4.4132C13.1384 4.21109 13.0462 4.02291 12.8961 3.88978L8.65685 0.192548C8.5219 0.0686054 8.34658 0 8.16479 0C7.98301 0 7.80769 0.0686054 7.67273 0.192548L3.43344 3.8907C3.3569 3.95511 3.29398 4.03466 3.24851 4.12452C3.20303 4.21438 3.17594 4.3127 3.16886 4.41353C3.16178 4.51435 3.17487 4.61559 3.20734 4.71112C3.2398 4.80666 3.29097 4.89449 3.35774 4.96932C3.63531 5.2775 4.08952 5.32887 4.41756 5.04637V5.04545Z" fill="#9154FD"/>
</svg>
