<svg width="18" height="19" viewBox="0 0 18 19" fill="none" xmlns="http://www.w3.org/2000/svg">
<path fill-rule="evenodd" clip-rule="evenodd" d="M0.838103 0.5C0.615824 0.5 0.402649 0.5883 0.245475 0.745475C0.0882999 0.902649 0 1.11582 0 1.3381L0 7.96959C0 8.19187 0.0882999 8.40504 0.245475 8.56222C0.402649 8.71939 0.615824 8.80769 0.838103 8.80769H7.46959C7.69187 8.80769 7.90504 8.71939 8.06222 8.56222C8.21939 8.40504 8.30769 8.19187 8.30769 7.96959V1.3381C8.30769 1.11582 8.21939 0.902649 8.06222 0.745475C7.90504 0.5883 7.69187 0.5 7.46959 0.5H0.838103Z" fill="#1A2442"/>
<path fill-rule="evenodd" clip-rule="evenodd" d="M0.838103 10.1985C0.615824 10.1985 0.402649 10.2868 0.245475 10.4438C0.0882999 10.6008 0 10.8137 0 11.0358L0 17.6627C0 17.8848 0.0882999 18.0977 0.245475 18.2547C0.402649 18.4117 0.615824 18.5 0.838103 18.5H7.46959C7.69187 18.5 7.90504 18.4117 8.06222 18.2547C8.21939 18.0977 8.30769 17.8848 8.30769 17.6627V11.0295C8.30769 10.8075 8.21939 10.5945 8.06222 10.4375C7.90504 10.2805 7.69187 10.1923 7.46959 10.1923L0.838103 10.1985Z" fill="#1A2442"/>
<path fill-rule="evenodd" clip-rule="evenodd" d="M13.8465 0.5C13.0249 0.5 12.2218 0.743619 11.5387 1.20005C10.8556 1.65648 10.3232 2.30522 10.0088 3.06424C9.69443 3.82325 9.61217 4.65845 9.77244 5.46422C9.93272 6.26999 10.3283 7.01013 10.9093 7.59106C11.4902 8.17198 12.2303 8.5676 13.0361 8.72788C13.8419 8.88815 14.6771 8.80589 15.4361 8.4915C16.1951 8.1771 16.8438 7.64469 17.3003 6.9616C17.7567 6.2785 18.0003 5.4754 18.0003 4.65385C18.0003 4.10835 17.8929 3.56821 17.6841 3.06424C17.4754 2.56027 17.1694 2.10235 16.7837 1.71663C16.398 1.33091 15.9401 1.02494 15.4361 0.816193C14.9321 0.607442 14.392 0.5 13.8465 0.5V0.5Z" fill="#1A2442"/>
<path fill-rule="evenodd" clip-rule="evenodd" d="M10.5299 10.1985C10.3078 10.1985 10.0949 10.2868 9.93785 10.4438C9.78084 10.6008 9.69263 10.8137 9.69263 11.0358V17.6627C9.69263 17.8848 9.78084 18.0977 9.93785 18.2547C10.0949 18.4117 10.3078 18.5 10.5299 18.5H17.1631C17.3851 18.5 17.5981 18.4117 17.7551 18.2547C17.9121 18.0977 18.0003 17.8848 18.0003 17.6627V11.0295C18.0003 10.8075 17.9121 10.5945 17.7551 10.4375C17.5981 10.2805 17.3851 10.1923 17.1631 10.1923L10.5299 10.1985Z" fill="#1A2442"/>
</svg>
