<svg xmlns="http://www.w3.org/2000/svg" xmlns:xlink="http://www.w3.org/1999/xlink" viewBox="0 0 705.97 237.93"><defs><radialGradient id="a" cx="595.79" cy="154.1" fx="693.2575777850403" r="119.94" gradientTransform="translate(969.77 -452.24) rotate(88.42) scale(1 2.53)" gradientUnits="userSpaceOnUse"><stop offset="0" stop-color="#3eb9f1"/><stop offset="0.1" stop-color="#4a9cf6"/><stop offset="0.26" stop-color="#5e6efd"/><stop offset="0.35" stop-color="#7861fd"/><stop offset="0.43" stop-color="#9154fd"/><stop offset="0.63" stop-color="#c946f2"/><stop offset="0.77" stop-color="#db41ef"/><stop offset="0.85" stop-color="#ff8cef"/></radialGradient><linearGradient id="b" x1="558.66" y1="158.54" x2="594.11" y2="154.81" gradientUnits="userSpaceOnUse"><stop offset="0" stop-color="#d148ef"/><stop offset="0.31" stop-color="#d446ef" stop-opacity="0.68"/><stop offset="0.79" stop-color="#d942ef" stop-opacity="0.19"/><stop offset="1" stop-color="#db41ef" stop-opacity="0"/></linearGradient><radialGradient id="c" cx="-556.76" cy="-6107.88" fx="-511.271998084756" r="45.51" gradientTransform="translate(124.94 -5904.03) rotate(180)" gradientUnits="userSpaceOnUse"><stop offset="0.08" stop-color="#3eb9f1"/><stop offset="0.22" stop-color="#4a9cf6"/><stop offset="0.45" stop-color="#5e6efd"/><stop offset="0.49" stop-color="#7463fd"/><stop offset="0.54" stop-color="#8958fd"/><stop offset="0.57" stop-color="#9154fd"/><stop offset="0.75" stop-color="#db41ef"/></radialGradient><linearGradient id="d" x1="391.09" y1="142.06" x2="306.77" y2="142.06" gradientUnits="userSpaceOnUse"><stop offset="0.08" stop-color="#6d368f"/><stop offset="1" stop-color="#7c00a0"/></linearGradient><linearGradient id="e" x1="330.44" y1="141.1" x2="302.7" y2="144" gradientUnits="userSpaceOnUse"><stop offset="0.95" stop-color="#21264a"/><stop offset="1" stop-color="#1a2442"/></linearGradient><linearGradient id="f" x1="330.44" y1="141.1" x2="302.7" y2="144" gradientUnits="userSpaceOnUse"><stop offset="0" stop-color="#ca40ef"/><stop offset="0.08" stop-color="#bc3ee1"/><stop offset="0.72" stop-color="#482b6f"/><stop offset="1" stop-color="#1a2442"/></linearGradient><linearGradient id="g" x1="510.01" y1="102.68" x2="483.59" y2="103.34" xlink:href="#f"/></defs><path d="M69,27V72.5h41.71v29.1H69v75.28c0,19.83,6.83,28.4,22.32,28.4a76.86,76.86,0,0,0,16.4-1.55l.9,30.12c-6.72,2.12-17.92,3.76-31.62,3.76-15.9,0-29.32-4.45-37.79-12.37-9.67-8.91-14.25-22.87-14.25-45V101.6H0V72.5H25v-36Z" fill="#1a2442"/><path d="M130.28,122.67c0-19.7-.63-35.93-1.51-50.17h38.81l1.82,28.89h1.27c8.49-20.91,28.08-32.25,46.49-32.25a49.38,49.38,0,0,1,10.22.79V107.6a67.52,67.52,0,0,0-12.14-.92c-19.71,0-34.7,11.78-38.91,30A61.47,61.47,0,0,0,175,150v84.52H130.28Z" fill="#1a2442"/><path d="M571.25,124.09c0-19.71-.64-35.94-1.51-50.18h38.8l1.83,28.9h1.27c8.48-20.92,28.08-32.26,46.49-32.26a49.44,49.44,0,0,1,10.22.79V109a66.52,66.52,0,0,0-12.14-.93c-19.72,0-34.7,11.78-38.91,30A60.92,60.92,0,0,0,616,151.45V236H571.25Z" fill="url(#a)"/><path d="M571.25,124.09c0-19.71-.64-35.94-1.51-50.18h38.8l1.83,28.9h1.27c8.48-20.92,28.08-32.26,46.49-32.26a49.44,49.44,0,0,1,10.22.79V109a66.52,66.52,0,0,0-12.14-.93c-19.72,0-34.7,11.78-38.91,30A60.92,60.92,0,0,0,616,151.45V236H571.25Z" fill="url(#b)"/><ellipse cx="681.28" cy="209.41" rx="24.54" ry="25.38" transform="translate(-26.04 297.15) rotate(-24.16)" fill="url(#c)"/><rect x="330.68" y="128.98" width="62.41" height="26.16" fill="#fff"/><rect x="330.68" y="128.98" width="62.41" height="26.16" fill="#1a2442"/><rect x="330.68" y="128.98" width="62.41" height="26.16" fill="url(#d)"/><path d="M330.68,154.66,329.49,129a222.17,222.17,0,0,0-32.4,2.19l5.09,25.92A134.43,134.43,0,0,1,330.68,154.66Z" fill="url(#e)"/><path d="M330.68,154.66,329.49,129a222.17,222.17,0,0,0-32.4,2.19l5.09,25.92A134.43,134.43,0,0,1,330.68,154.66Z" fill="#fff"/><path d="M374.3,196.16V135.88c0-35.23-15.44-66.74-71-66.74-27,0-49.51,6.82-62,13.54l8.79,25.89c11.78-6.56,28.37-11.15,44.94-11.15,28.82-.08,34.42,15.88,34.42,28.39V129a222.17,222.17,0,0,0-32.4,2.19c-41.83,6.16-68.53,25.44-68.53,58.63,0,25.84,20.46,48.13,54.52,48.13,21.53,0,39.11-8.25,49.67-21h1.06l2.94,17.59H377C375,224.33,374.3,210.26,374.3,196.16Zm-43.62-16.71a28,28,0,0,1-1.2,8.7C325.33,200.21,313,209.41,297,209.41c-13,0-24.56-7.21-24.56-23.8,0-16.8,13-24.94,29.74-28.52a134.43,134.43,0,0,1,28.5-2.43Z" fill="#1a2442"/><path d="M330.68,154.66,329.49,129a222.17,222.17,0,0,0-32.4,2.19l5.09,25.92A134.43,134.43,0,0,1,330.68,154.66Z" opacity="0.67" fill="url(#f)"/><path d="M552.73,189.6V0H508.12V89.2h-.76c-5.48-8.53-15.46-15.24-29-18.28a76.73,76.73,0,0,0-16.76-1.78c-39.91,0-75.22,30.76-75,85.85,0,49.52,30.37,82.94,71.83,82.94,24,0,43.76-10.94,53.37-27.09h.91l2.17,23.72h39.4C553.48,223.14,552.73,205.22,552.73,189.6Zm-44.61-21.37a39.85,39.85,0,0,1-1.41,11.49c-4.81,17.39-19.17,26.45-34.75,26.45-25.61,0-40.28-21.55-40.28-52.11,0-29.73,13.81-53.7,40.94-53.7a36.6,36.6,0,0,1,4.36.26,35,35,0,0,1,30.23,27.25,43.65,43.65,0,0,1,.85,7.4c0,1.07.06,2.11.06,3.08Z" fill="#1a2442"/><path d="M507.21,127.87a43.65,43.65,0,0,1,.85,7.4h0l.06-46.08h-.76c-5.48-8.53-15.46-15.24-29-18.28L477,100.62A35,35,0,0,1,507.21,127.87Z" opacity="0.67" fill="url(#g)"/></svg>