<svg width="18" height="15" viewBox="0 0 18 15" fill="none" xmlns="http://www.w3.org/2000/svg">
<path d="M16.3643 1.53702H8.25075C8.22665 1.12169 8.04434 0.731244 7.74112 0.445534C7.43789 0.159824 7.03666 0.000449671 6.6195 0H1.6335C1.20006 0.000594566 0.784581 0.172737 0.478305 0.478594C0.172029 0.784451 1.13971e-06 1.19902 1.54975e-06 1.63127V13.3688C-0.000294185 13.5829 0.0417387 13.7949 0.123697 13.9928C0.205656 14.1907 0.325932 14.3706 0.477646 14.5221C0.62936 14.6736 0.809534 14.7938 1.00787 14.8758C1.2062 14.9578 1.4188 15 1.6335 15H16.3643C16.7981 15 17.2141 14.8281 17.5209 14.5222C17.8277 14.2163 18 13.8014 18 13.3688V3.16829C18 2.73565 17.8277 2.32074 17.5209 2.01482C17.2141 1.7089 16.7981 1.53702 16.3643 1.53702ZM11.9565 11.5647H6.4665C5.81606 11.5647 5.19225 11.307 4.73232 10.8484C4.27239 10.3897 4.014 9.76759 4.014 9.11893C4.014 8.47027 4.27239 7.84816 4.73232 7.38949C5.19225 6.93082 5.81606 6.67315 6.4665 6.67315H6.48225C6.76496 6.09243 7.22643 5.61708 7.79927 5.31647C8.37212 5.01586 9.02633 4.90574 9.66637 5.00222C10.3064 5.0987 10.8988 5.39672 11.3569 5.85275C11.8151 6.30878 12.115 6.89892 12.213 7.53702C12.7501 7.57094 13.2516 7.81625 13.6073 8.21896C13.963 8.62167 14.1438 9.14879 14.1097 9.68438C14.0757 10.22 13.8298 10.7202 13.426 11.0749C13.0221 11.4296 12.4936 11.6098 11.9565 11.5759V11.5647Z" fill="#D2D6E1"/>
</svg>
