<svg width="25" height="21" viewBox="0 0 25 21" fill="none" xmlns="http://www.w3.org/2000/svg">
<path d="M25 2.49505C24.075 2.93688 23.125 3.24876 22.1 3.35272C23.15 2.70297 23.975 1.63738 24.375 0.441832C23.325 1.09158 22.3 1.53342 21.15 1.74134C20.225 0.649752 18.875 0 17.4 0C14.075 0 11.65 3.24876 12.4 6.49752C8.025 6.2896 4.275 4.10644 1.75 0.857673C0.4 3.35272 1.025 6.49752 3.3 8.00495C2.475 8.00495 1.65 7.79703 1.025 7.3552C0.925 9.85025 2.675 12.1374 5.075 12.6832C4.35 12.8911 3.525 12.8911 2.8 12.7871C3.425 14.9443 5.3 16.4777 7.6 16.4777C5.425 18.1931 2.7 18.9468 0 18.6349C2.275 20.1423 5 21 7.825 21C17.3 21 22.725 12.6572 22.425 5.17203C23.45 4.41832 24.275 3.45668 25 2.49505Z" fill="#9BA5BF"/>
</svg>
