<?xml version="1.0" encoding="utf-8"?>
<!-- Generator: Adobe Illustrator 27.2.0, SVG Export Plug-In . SVG Version: 6.00 Build 0)  -->
<svg version="1.1" id="Calque_1" xmlns="http://www.w3.org/2000/svg" xmlns:xlink="http://www.w3.org/1999/xlink" x="0px" y="0px"
	 viewBox="0 0 705.97 237.93" style="enable-background:new 0 0 705.97 237.93;" xml:space="preserve">
<style type="text/css">
	.st0{fill:#FFFFFF;}
	.st1{fill:#1A2442;}
	.st2{opacity:0.39;fill:url(#SVGID_1_);}
	.st3{fill:url(#SVGID_00000014625152775903697870000011469119125829886890_);}
	.st4{fill:url(#SVGID_00000165213762966026165640000013605716487123593151_);}
	.st5{opacity:0.39;fill:url(#SVGID_00000057863609295321502830000013351621668127033994_);}
	.st6{opacity:0.39;fill:url(#SVGID_00000049217968076524527690000013500970383953276069_);}
	.st7{fill:url(#SVGID_00000176008789231362913410000011818045746603720873_);}
	.st8{fill:url(#SVGID_00000023969921219114046550000014477697597377508742_);}
	.st9{fill:url(#SVGID_00000123440263231460087260000016398741163414049465_);}
	.st10{fill:url(#SVGID_00000022522848826682255100000004257379088350142357_);}
	.st11{fill:url(#SVGID_00000152957977796090604580000006927697701441198236_);}
	.st12{fill:url(#SVGID_00000160899059844369611150000004965961042885358781_);}
	.st13{opacity:0.67;fill:url(#SVGID_00000150068950035632536330000008707820012486948534_);}
	.st14{opacity:0.67;fill:url(#SVGID_00000070815121140601527010000009634515511746279065_);}
	.st15{opacity:0.39;fill:url(#SVGID_00000088100757708401104000000017887988852981167519_);}
	.st16{fill:url(#SVGID_00000031187577346450224510000018025519658613348780_);}
	.st17{fill:url(#SVGID_00000153689977633115631850000009049216806694001337_);}
	.st18{fill:url(#SVGID_00000041992502926276153140000013586245444451493274_);}
	.st19{opacity:0.39;fill:url(#SVGID_00000010278272518776979810000002934827060454907542_);}
	.st20{opacity:0.39;fill:url(#SVGID_00000183960934162732566630000017678082425879300783_);}
	.st21{fill:url(#SVGID_00000119119615063722703720000005686256252426507657_);}
	.st22{fill:url(#SVGID_00000083057336304405078390000011371664764771331491_);}
	.st23{fill:url(#SVGID_00000025414594694544014370000000770927807328164281_);}
	.st24{fill:url(#SVGID_00000002385637588386225620000013027988388711347115_);}
	.st25{fill:url(#SVGID_00000087401226086720811690000013208280071281146781_);}
	.st26{fill:url(#SVGID_00000105388489971249972080000008311377224572991935_);}
	.st27{fill:url(#SVGID_00000170973102537962944240000008441356845516335294_);}
	.st28{fill:url(#SVGID_00000097463280111226924030000002726919079016121475_);}
	.st29{fill:url(#SVGID_00000014592727769208889480000018069381134469740989_);}
	.st30{fill:url(#SVGID_00000085959750336794468970000005279191399293913242_);}
	.st31{opacity:0.67;fill:url(#SVGID_00000061444853232147974020000009829652700932340387_);}
	.st32{opacity:0.67;fill:url(#SVGID_00000110468845243906581210000003210162682647089330_);}
</style>
<g>
	<rect x="330.68" y="128.98" class="st0" width="62.41" height="26.16"/>
	<linearGradient id="SVGID_1_" gradientUnits="userSpaceOnUse" x1="391.0928" y1="142.0598" x2="306.7656" y2="142.0598">
		<stop  offset="0.1091" style="stop-color:#7C00A0"/>
		<stop  offset="0.4155" style="stop-color:#9A40CB"/>
		<stop  offset="0.6342" style="stop-color:#CA40EF"/>
		<stop  offset="0.9997" style="stop-color:#EB50EF;stop-opacity:0"/>
	</linearGradient>
	<rect x="330.68" y="128.98" class="st2" width="62.41" height="26.16"/>
	<path class="st0" d="M69.04,26.98V72.5h41.71v29.1H69.04v75.27c0,19.84,6.83,28.4,22.32,28.4c7,0,12.31-0.66,16.4-1.55l0.9,30.12
		c-6.72,2.11-17.92,3.76-31.62,3.76c-15.89,0-29.32-4.45-37.78-12.38C29.58,216.33,25,202.37,25,180.27V101.6H0V72.5h25v-36
		L69.04,26.98z"/>
	<path class="st0" d="M130.28,122.67c0-19.7-0.63-35.94-1.51-50.17h38.81l1.82,28.89h1.27c8.49-20.91,28.08-32.26,46.49-32.26
		c4.36,0,6.88,0.17,10.22,0.79v37.68c-3.53-0.63-7.16-0.93-12.14-0.93c-19.71,0-34.7,11.78-38.91,30.05
		c-0.86,3.7-1.33,8.38-1.33,13.31v84.53h-44.72V122.67z"/>
	
		<radialGradient id="SVGID_00000097501625658187726930000017774724145499848379_" cx="595.7925" cy="154.0991" r="119.9441" fx="693.2576" fy="156.9685" gradientTransform="matrix(0.0276 0.9996 -2.5335 0.0699 969.7703 -452.2353)" gradientUnits="userSpaceOnUse">
		<stop  offset="0" style="stop-color:#3EB9F1"/>
		<stop  offset="0.0977" style="stop-color:#4A9CF6"/>
		<stop  offset="0.2624" style="stop-color:#5E6EFD"/>
		<stop  offset="0.3525" style="stop-color:#7861FD"/>
		<stop  offset="0.4267" style="stop-color:#9154FD"/>
		<stop  offset="0.6297" style="stop-color:#C946F2"/>
		<stop  offset="0.766" style="stop-color:#DB41EF"/>
		<stop  offset="0.8502" style="stop-color:#FF8CEF"/>
	</radialGradient>
	<path style="fill:url(#SVGID_00000097501625658187726930000017774724145499848379_);" d="M571.25,124.09
		c0-19.7-0.64-35.94-1.51-50.17h38.81l1.82,28.89h1.27c8.49-20.91,28.08-32.26,46.49-32.26c4.36,0,6.88,0.17,10.22,0.79v37.68
		c-3.53-0.63-7.16-0.93-12.14-0.93c-19.71,0-34.7,11.78-38.91,30.05c-0.86,3.7-1.33,8.38-1.33,13.31v84.53h-44.72V124.09z"/>
	
		<linearGradient id="SVGID_00000044856750173506046750000009246650236270532283_" gradientUnits="userSpaceOnUse" x1="558.6586" y1="158.544" x2="594.1134" y2="154.8119">
		<stop  offset="0" style="stop-color:#D148EF"/>
		<stop  offset="0.9997" style="stop-color:#DB41EF;stop-opacity:0"/>
	</linearGradient>
	<path style="fill:url(#SVGID_00000044856750173506046750000009246650236270532283_);" d="M571.25,124.09
		c0-19.7-0.64-35.94-1.51-50.17h38.81l1.82,28.89h1.27c8.49-20.91,28.08-32.26,46.49-32.26c4.36,0,6.88,0.17,10.22,0.79v37.68
		c-3.53-0.63-7.16-0.93-12.14-0.93c-19.71,0-34.7,11.78-38.91,30.05c-0.86,3.7-1.33,8.38-1.33,13.31v84.53h-44.72V124.09z"/>
	
		<radialGradient id="SVGID_00000172413730970927326710000001519100267949500577_" cx="-772.1043" cy="-5101.5938" r="45.5092" fx="-726.6135" fy="-5100.2998" gradientTransform="matrix(-0.9124 0.4092 -0.4092 -0.9124 -2112.9165 -4134.6543)" gradientUnits="userSpaceOnUse">
		<stop  offset="0.0815" style="stop-color:#3EB9F1"/>
		<stop  offset="0.2179" style="stop-color:#4A9CF6"/>
		<stop  offset="0.4478" style="stop-color:#5E6EFD"/>
		<stop  offset="0.4879" style="stop-color:#7463FD"/>
		<stop  offset="0.5367" style="stop-color:#8958FD"/>
		<stop  offset="0.5689" style="stop-color:#9154FD"/>
		<stop  offset="0.7525" style="stop-color:#DB41EF"/>
	</radialGradient>
	<path style="fill:url(#SVGID_00000172413730970927326710000001519100267949500577_);" d="M658.89,219.46
		c-5.74-12.79-0.36-27.65,12-33.2c12.37-5.55,27.04,0.33,32.78,13.12c5.74,12.79,0.36,27.65-12,33.2
		C679.31,238.12,664.63,232.25,658.89,219.46z"/>
	<path class="st0" d="M552.73,189.6V0h-44.61v89.2l-0.06,46.08l0,0c0.04,1.06,0.06,2.1,0.06,3.07v29.88c0,4.22-0.38,8.11-1.41,11.49
		c-4.81,17.39-19.17,26.44-34.76,26.44c-25.61,0-40.28-21.54-40.28-52.11c0-29.73,13.81-53.7,40.94-53.7c1.49,0,2.95,0.09,4.37,0.26
		l1.36-29.7c-5.1-1.14-10.69-1.79-16.76-1.79c-39.91,0-75.22,30.77-75.02,85.85c0,49.52,30.37,82.94,71.83,82.94
		c24,0,43.77-10.93,53.37-27.09h0.91l2.18,23.72h39.4C553.48,223.14,552.73,205.22,552.73,189.6z"/>
	<path class="st0" d="M507.21,127.87c0.52,2.31,0.75,4.93,0.85,7.4l0,0l0.06-46.08h-0.76c-5.48-8.53-15.46-15.24-29.02-18.28
		l-1.36,29.7C492.89,102.44,504.08,114.14,507.21,127.87z"/>
	
		<linearGradient id="SVGID_00000136405343698682443020000012809023185095212674_" gradientUnits="userSpaceOnUse" x1="510.012" y1="102.6833" x2="483.5874" y2="103.3358">
		<stop  offset="0.1091" style="stop-color:#9740C9"/>
		<stop  offset="0.232" style="stop-color:#CA40EF"/>
		<stop  offset="0.9997" style="stop-color:#EB50EF;stop-opacity:0"/>
	</linearGradient>
	<path style="opacity:0.39;fill:url(#SVGID_00000136405343698682443020000012809023185095212674_);" d="M507.21,127.87
		c0.52,2.31,0.75,4.93,0.85,7.4l0,0l0.06-46.08h-0.76c-5.48-8.53-15.46-15.24-29.02-18.28l-1.36,29.7
		C492.89,102.44,504.08,114.14,507.21,127.87z"/>
	<path class="st0" d="M374.3,196.16v-60.28c0-35.24-15.44-66.75-70.98-66.75c-27.02,0-49.52,6.82-61.97,13.55l8.78,25.89
		c11.78-6.56,28.37-11.16,44.94-11.16c28.82-0.08,34.42,15.88,34.42,28.4v3.17l1.19,25.68v24.79c0,2.83-0.27,5.96-1.2,8.7
		c-4.15,12.06-16.44,21.26-32.48,21.26c-12.96,0-24.56-7.22-24.56-23.81c0-16.8,13.01-24.94,29.74-28.51l-5.09-25.93
		c-41.83,6.17-68.53,25.44-68.53,58.64c0,25.83,20.46,48.12,54.52,48.12c21.53,0,39.11-8.25,49.67-20.96h1.06l2.94,17.59h40.26
		C375.01,224.33,374.3,210.26,374.3,196.16z"/>
	<path class="st0" d="M330.68,154.66l-1.19-25.68c-11.56-0.01-22.41,0.71-32.4,2.19l5.09,25.93
		C311.09,155.19,321.05,154.58,330.68,154.66z"/>
	
		<linearGradient id="SVGID_00000033346436955853521290000012561433608008424862_" gradientUnits="userSpaceOnUse" x1="330.4422" y1="141.0965" x2="302.6971" y2="144.0031">
		<stop  offset="0.1091" style="stop-color:#9740C9"/>
		<stop  offset="0.232" style="stop-color:#CA40EF"/>
		<stop  offset="0.9997" style="stop-color:#EB50EF;stop-opacity:0"/>
	</linearGradient>
	<path style="opacity:0.39;fill:url(#SVGID_00000033346436955853521290000012561433608008424862_);" d="M330.68,154.66l-1.19-25.68
		c-11.56-0.01-22.41,0.71-32.4,2.19l5.09,25.93C311.09,155.19,321.05,154.58,330.68,154.66z"/>
</g>
</svg>
