<svg width="71" height="36" viewBox="0 0 71 36" fill="none" xmlns="http://www.w3.org/2000/svg">
<g clip-path="url(#clip0_61_4113)">
<rect width="71" height="36" rx="10" fill="#474466"/>
<g filter="url(#filter0_dd_61_4113)">
<rect x="37" y="2" width="32" height="32" rx="8" fill="#9154FD"/>
</g>
<path d="M17.9957 23.6216C21.1059 23.6216 23.6273 21.1011 23.6273 17.992C23.6273 14.8828 21.1059 12.3623 17.9957 12.3623C14.8854 12.3623 12.364 14.8828 12.364 17.992C12.364 21.1011 14.8854 23.6216 17.9957 23.6216Z" fill="#706F94"/>
<path d="M17.9957 24.6968C17.7808 24.6968 17.5746 24.7822 17.4227 24.9341C17.2707 25.0861 17.1853 25.2923 17.1853 25.5072V28.1897C17.1853 28.4046 17.2707 28.6107 17.4227 28.7627C17.5746 28.9147 17.7808 29.0001 17.9957 29.0001C18.2106 29.0001 18.4168 28.9147 18.5688 28.7627C18.7207 28.6107 18.8061 28.4046 18.8061 28.1897V25.4991C18.804 25.2856 18.7177 25.0815 18.5659 24.9313C18.4142 24.781 18.2093 24.6968 17.9957 24.6968Z" fill="#706F94"/>
<path d="M17.9957 11.2898C18.2106 11.2898 18.4168 11.2044 18.5688 11.0524C18.7207 10.9004 18.8061 10.6943 18.8061 10.4794V7.81041C18.8061 7.59548 18.7207 7.38935 18.5688 7.23736C18.4168 7.08538 18.2106 7 17.9957 7C17.7808 7 17.5746 7.08538 17.4227 7.23736C17.2707 7.38935 17.1853 7.59548 17.1853 7.81041V10.4848C17.1867 10.6988 17.2727 10.9035 17.4246 11.0543C17.5764 11.2051 17.7817 11.2898 17.9957 11.2898Z" fill="#706F94"/>
<path d="M23.8756 22.7326C23.805 22.642 23.7159 22.5673 23.6143 22.5137C23.5126 22.46 23.4007 22.4286 23.286 22.4215C23.1713 22.4144 23.0564 22.4317 22.9489 22.4723C22.8414 22.513 22.7438 22.576 22.6625 22.6573C22.5812 22.7385 22.5182 22.8361 22.4775 22.9436C22.4368 23.051 22.4195 23.1659 22.4266 23.2806C22.4337 23.3953 22.4652 23.5071 22.5188 23.6087C22.5725 23.7103 22.6472 23.7994 22.7379 23.8699L24.6295 25.7609C24.7001 25.8516 24.7892 25.9262 24.8908 25.9798C24.9924 26.0335 25.1043 26.0649 25.219 26.072C25.3338 26.0792 25.4487 26.0618 25.5562 26.0212C25.6637 25.9805 25.7613 25.9175 25.8426 25.8362C25.9238 25.755 25.9869 25.6574 26.0276 25.5499C26.0682 25.4425 26.0856 25.3276 26.0785 25.2129C26.0713 25.0983 26.0399 24.9864 25.9862 24.8848C25.9326 24.7832 25.8579 24.6942 25.7672 24.6236L23.8756 22.7326Z" fill="#706F94"/>
<path d="M12.118 13.2536C12.1886 13.3442 12.2777 13.4189 12.3793 13.4725C12.481 13.5262 12.5928 13.5576 12.7076 13.5647C12.8223 13.5718 12.9372 13.5545 13.0447 13.5138C13.1522 13.4732 13.2498 13.4102 13.3311 13.3289C13.4124 13.2477 13.4754 13.1501 13.5161 13.0426C13.5568 12.9352 13.5741 12.8203 13.567 12.7056C13.5599 12.5909 13.5284 12.4791 13.4747 12.3775C13.4211 12.2759 13.3464 12.1868 13.2557 12.1163L11.3641 10.2253C11.2935 10.1346 11.2044 10.06 11.1028 10.0064C11.0012 9.95271 10.8893 9.92128 10.7746 9.91416C10.6598 9.90703 10.5449 9.92437 10.4374 9.96502C10.3299 10.0057 10.2323 10.0687 10.151 10.15C10.0698 10.2312 10.0067 10.3288 9.96602 10.4363C9.92535 10.5437 9.90801 10.6586 9.91514 10.7733C9.92226 10.8879 9.9537 10.9998 10.0074 11.1014C10.061 11.203 10.1357 11.292 10.2264 11.3626L12.118 13.2536Z" fill="#706F94"/>
<path d="M23.8756 13.2536L25.7672 11.3626C25.8579 11.292 25.9326 11.203 25.9862 11.1014C26.0399 10.9998 26.0713 10.8879 26.0785 10.7733C26.0856 10.6586 26.0682 10.5437 26.0276 10.4363C25.9869 10.3288 25.9238 10.2312 25.8426 10.15C25.7613 10.0687 25.6637 10.0057 25.5562 9.96502C25.4487 9.92437 25.3338 9.90703 25.219 9.91416C25.1043 9.92128 24.9924 9.95271 24.8908 10.0064C24.7892 10.06 24.7001 10.1346 24.6295 10.2253L22.7379 12.1163C22.6472 12.1868 22.5725 12.2759 22.5188 12.3775C22.4652 12.4791 22.4337 12.5909 22.4266 12.7056C22.4195 12.8203 22.4368 12.9352 22.4775 13.0426C22.5182 13.1501 22.5812 13.2477 22.6625 13.3289C22.7438 13.4102 22.8414 13.4732 22.9489 13.5138C23.0564 13.5545 23.1713 13.5718 23.286 13.5647C23.4007 13.5576 23.5126 13.5262 23.6143 13.4725C23.7159 13.4189 23.805 13.3442 23.8756 13.2536Z" fill="#706F94"/>
<path d="M12.118 22.7326L10.2264 24.6236C10.1357 24.6942 10.061 24.7832 10.0074 24.8848C9.9537 24.9864 9.92226 25.0983 9.91514 25.2129C9.90801 25.3276 9.92535 25.4425 9.96602 25.5499C10.0067 25.6574 10.0698 25.755 10.151 25.8362C10.2323 25.9175 10.3299 25.9805 10.4374 26.0212C10.5449 26.0618 10.6598 26.0792 10.7746 26.072C10.8893 26.0649 11.0012 26.0335 11.1028 25.9798C11.2044 25.9262 11.2935 25.8516 11.3641 25.7609L13.2557 23.8699C13.3464 23.7994 13.4211 23.7103 13.4747 23.6087C13.5284 23.5071 13.5599 23.3953 13.567 23.2806C13.5741 23.1659 13.5568 23.051 13.5161 22.9436C13.4754 22.8361 13.4124 22.7385 13.3311 22.6573C13.2498 22.576 13.1522 22.513 13.0447 22.4723C12.9372 22.4317 12.8223 22.4144 12.7076 22.4215C12.5928 22.4286 12.481 22.46 12.3793 22.5137C12.2777 22.5673 12.1886 22.642 12.118 22.7326Z" fill="#706F94"/>
<path d="M28.1894 17.1895H25.506C25.291 17.1895 25.0848 17.2748 24.9328 17.4268C24.7807 17.5788 24.6953 17.7849 24.6953 17.9999C24.6953 18.2148 24.7807 18.4209 24.9328 18.5729C25.0848 18.7249 25.291 18.8103 25.506 18.8103H28.1894C28.4044 18.8103 28.6106 18.7249 28.7627 18.5729C28.9147 18.4209 29.0001 18.2148 29.0001 17.9999C29.0001 17.7849 28.9147 17.5788 28.7627 17.4268C28.6106 17.2748 28.4044 17.1895 28.1894 17.1895Z" fill="#706F94"/>
<path d="M11.2913 17.9921C11.2913 17.7771 11.2059 17.571 11.0538 17.419C10.9018 17.267 10.6956 17.1816 10.4806 17.1816H7.8107C7.59569 17.1816 7.38948 17.267 7.23745 17.419C7.08541 17.571 7 17.7771 7 17.9921C7 18.207 7.08541 18.4131 7.23745 18.5651C7.38948 18.7171 7.59569 18.8025 7.8107 18.8025H10.486C10.7001 18.801 10.9049 18.715 11.0558 18.5632C11.2066 18.4114 11.2913 18.2061 11.2913 17.9921Z" fill="#706F94"/>
<path d="M44 17.3161C44.0194 15.2334 44.6973 13.2114 45.9349 11.5446C47.1725 9.87778 48.9051 8.65331 50.8803 8.04956C50.9829 7.99807 51.1006 7.98623 51.2112 8.01625C51.3219 8.04628 51.4178 8.11611 51.481 8.21258C51.5369 8.31283 51.5551 8.43003 51.5324 8.54275C51.5097 8.65547 51.4476 8.75617 51.3573 8.82644C50.1256 10.0574 49.3443 11.6739 49.1413 13.4113C48.7955 16.5469 49.8556 19.1271 52.372 21.0273C53.6462 21.9811 55.1761 22.5243 56.7614 22.5856C58.3467 22.647 59.9134 22.2237 61.2563 21.3712C61.3339 21.2871 61.4415 21.2376 61.5553 21.2335C61.6692 21.2294 61.78 21.2712 61.8633 21.3495C61.9466 21.4279 61.9957 21.5365 61.9997 21.6514C62.0038 21.7662 61.9624 21.878 61.8847 21.9621C60.2997 24.7946 57.9221 26.5012 54.7218 26.9214C49.79 27.571 45.1484 24.1221 44.2272 19.1755C44.1136 18.5617 44.0732 17.9427 44 17.3161Z" fill="#E9EDFC"/>
</g>
<defs>
<filter id="filter0_dd_61_4113" x="29" y="-6" width="48" height="48" filterUnits="userSpaceOnUse" color-interpolation-filters="sRGB">
<feFlood flood-opacity="0" result="BackgroundImageFix"/>
<feColorMatrix in="SourceAlpha" type="matrix" values="0 0 0 0 0 0 0 0 0 0 0 0 0 0 0 0 0 0 127 0" result="hardAlpha"/>
<feOffset/>
<feGaussianBlur stdDeviation="4"/>
<feComposite in2="hardAlpha" operator="out"/>
<feColorMatrix type="matrix" values="0 0 0 0 0.568627 0 0 0 0 0.329412 0 0 0 0 0.992157 0 0 0 0.4 0"/>
<feBlend mode="normal" in2="BackgroundImageFix" result="effect1_dropShadow_61_4113"/>
<feColorMatrix in="SourceAlpha" type="matrix" values="0 0 0 0 0 0 0 0 0 0 0 0 0 0 0 0 0 0 127 0" result="hardAlpha"/>
<feOffset dy="1"/>
<feGaussianBlur stdDeviation="0.5"/>
<feComposite in2="hardAlpha" operator="out"/>
<feColorMatrix type="matrix" values="0 0 0 0 0.568627 0 0 0 0 0.329412 0 0 0 0 0.992157 0 0 0 0.4 0"/>
<feBlend mode="normal" in2="effect1_dropShadow_61_4113" result="effect2_dropShadow_61_4113"/>
<feBlend mode="normal" in="SourceGraphic" in2="effect2_dropShadow_61_4113" result="shape"/>
</filter>
<clipPath id="clip0_61_4113">
<rect width="71" height="36" rx="10" fill="white"/>
</clipPath>
</defs>
</svg>
