<svg width="100" height="100" viewBox="0 0 71 36" fill="none" xmlns="http://www.w3.org/2000/svg">
<g clip-path="url(#clip0_61_4112)">
<rect width="71" height="36" rx="10" fill="white"/>
<g filter="url(#filter0_dd_61_4112)">
<rect x="2" y="2" width="32" height="32" rx="8" fill="#9154FD"/>
</g>
<path d="M17.9957 23.6214C21.1059 23.6214 23.6273 21.1009 23.6273 17.9917C23.6273 14.8825 21.1059 12.3621 17.9957 12.3621C14.8854 12.3621 12.364 14.8825 12.364 17.9917C12.364 21.1009 14.8854 23.6214 17.9957 23.6214Z" fill="white"/>
<path d="M17.9957 24.6968C17.7808 24.6968 17.5746 24.7822 17.4227 24.9341C17.2707 25.0861 17.1853 25.2923 17.1853 25.5072V28.1897C17.1853 28.4046 17.2707 28.6107 17.4227 28.7627C17.5746 28.9147 17.7808 29.0001 17.9957 29.0001C18.2106 29.0001 18.4168 28.9147 18.5688 28.7627C18.7207 28.6107 18.8061 28.4046 18.8061 28.1897V25.4991C18.804 25.2856 18.7177 25.0815 18.5659 24.9313C18.4142 24.781 18.2093 24.6968 17.9957 24.6968Z" fill="white"/>
<path d="M17.9957 11.2898C18.2106 11.2898 18.4168 11.2044 18.5688 11.0524C18.7207 10.9004 18.8061 10.6943 18.8061 10.4794V7.81041C18.8061 7.59548 18.7207 7.38935 18.5688 7.23736C18.4168 7.08538 18.2106 7 17.9957 7C17.7808 7 17.5746 7.08538 17.4227 7.23736C17.2707 7.38935 17.1853 7.59548 17.1853 7.81041V10.4848C17.1867 10.6988 17.2727 10.9035 17.4246 11.0543C17.5764 11.2051 17.7817 11.2898 17.9957 11.2898Z" fill="white"/>
<path d="M23.8756 22.7329C23.805 22.6422 23.7159 22.5676 23.6143 22.5139C23.5126 22.4603 23.4007 22.4289 23.286 22.4217C23.1713 22.4146 23.0564 22.4319 22.9489 22.4726C22.8414 22.5132 22.7438 22.5763 22.6625 22.6575C22.5812 22.7388 22.5182 22.8364 22.4775 22.9438C22.4368 23.0513 22.4195 23.1662 22.4266 23.2808C22.4337 23.3955 22.4652 23.5074 22.5188 23.609C22.5725 23.7106 22.6472 23.7996 22.7379 23.8702L24.6295 25.7611C24.7001 25.8518 24.7892 25.9264 24.8908 25.9801C24.9924 26.0337 25.1043 26.0652 25.219 26.0723C25.3338 26.0794 25.4487 26.0621 25.5562 26.0214C25.6637 25.9808 25.7613 25.9177 25.8426 25.8365C25.9238 25.7552 25.9869 25.6576 26.0276 25.5502C26.0682 25.4427 26.0856 25.3278 26.0785 25.2132C26.0713 25.0985 26.0399 24.9866 25.9862 24.885C25.9326 24.7834 25.8579 24.6944 25.7672 24.6238L23.8756 22.7329Z" fill="white"/>
<path d="M12.118 13.2538C12.1886 13.3445 12.2777 13.4191 12.3793 13.4728C12.481 13.5264 12.5928 13.5578 12.7076 13.565C12.8223 13.5721 12.9372 13.5547 13.0447 13.5141C13.1522 13.4734 13.2498 13.4104 13.3311 13.3292C13.4124 13.2479 13.4754 13.1503 13.5161 13.0429C13.5568 12.9354 13.5741 12.8205 13.567 12.7058C13.5599 12.5912 13.5284 12.4793 13.4747 12.3777C13.4211 12.2761 13.3464 12.1871 13.2557 12.1165L11.3641 10.2256C11.2935 10.1349 11.2044 10.0602 11.1028 10.0066C11.0012 9.95296 10.8893 9.92153 10.7746 9.9144C10.6598 9.90728 10.5449 9.92461 10.4374 9.96527C10.3299 10.0059 10.2323 10.069 10.151 10.1502C10.0698 10.2314 10.0067 10.329 9.96602 10.4365C9.92535 10.544 9.90801 10.6588 9.91514 10.7735C9.92226 10.8882 9.9537 11 10.0074 11.1016C10.061 11.2032 10.1357 11.2923 10.2264 11.3628L12.118 13.2538Z" fill="white"/>
<path d="M23.8756 13.2538L25.7672 11.3628C25.8579 11.2923 25.9326 11.2032 25.9862 11.1016C26.0399 11 26.0713 10.8882 26.0785 10.7735C26.0856 10.6588 26.0682 10.544 26.0276 10.4365C25.9869 10.329 25.9238 10.2314 25.8426 10.1502C25.7613 10.069 25.6637 10.0059 25.5562 9.96527C25.4487 9.92461 25.3338 9.90728 25.219 9.9144C25.1043 9.92153 24.9924 9.95296 24.8908 10.0066C24.7892 10.0602 24.7001 10.1349 24.6295 10.2256L22.7379 12.1165C22.6472 12.1871 22.5725 12.2761 22.5188 12.3777C22.4652 12.4793 22.4337 12.5912 22.4266 12.7058C22.4195 12.8205 22.4368 12.9354 22.4775 13.0429C22.5182 13.1503 22.5812 13.2479 22.6625 13.3292C22.7438 13.4104 22.8414 13.4734 22.9489 13.5141C23.0564 13.5547 23.1713 13.5721 23.286 13.565C23.4007 13.5578 23.5126 13.5264 23.6143 13.4728C23.7159 13.4191 23.805 13.3445 23.8756 13.2538Z" fill="white"/>
<path d="M12.118 22.7329L10.2264 24.6238C10.1357 24.6944 10.061 24.7834 10.0074 24.885C9.9537 24.9866 9.92226 25.0985 9.91514 25.2132C9.90801 25.3278 9.92535 25.4427 9.96602 25.5502C10.0067 25.6576 10.0698 25.7552 10.151 25.8365C10.2323 25.9177 10.3299 25.9808 10.4374 26.0214C10.5449 26.0621 10.6598 26.0794 10.7746 26.0723C10.8893 26.0652 11.0012 26.0337 11.1028 25.9801C11.2044 25.9264 11.2935 25.8518 11.3641 25.7611L13.2557 23.8702C13.3464 23.7996 13.4211 23.7106 13.4747 23.609C13.5284 23.5074 13.5599 23.3955 13.567 23.2808C13.5741 23.1662 13.5568 23.0513 13.5161 22.9438C13.4754 22.8364 13.4124 22.7388 13.3311 22.6575C13.2498 22.5763 13.1522 22.5132 13.0447 22.4726C12.9372 22.4319 12.8223 22.4146 12.7076 22.4217C12.5928 22.4289 12.481 22.4603 12.3793 22.5139C12.2777 22.5676 12.1886 22.6422 12.118 22.7329Z" fill="white"/>
<path d="M28.1894 17.1895H25.506C25.291 17.1895 25.0848 17.2748 24.9328 17.4268C24.7807 17.5788 24.6953 17.7849 24.6953 17.9999C24.6953 18.2148 24.7807 18.4209 24.9328 18.5729C25.0848 18.7249 25.291 18.8103 25.506 18.8103H28.1894C28.4044 18.8103 28.6106 18.7249 28.7627 18.5729C28.9147 18.4209 29.0001 18.2148 29.0001 17.9999C29.0001 17.7849 28.9147 17.5788 28.7627 17.4268C28.6106 17.2748 28.4044 17.1895 28.1894 17.1895Z" fill="white"/>
<path d="M11.2913 17.9918C11.2913 17.7769 11.2059 17.5707 11.0538 17.4188C10.9018 17.2668 10.6956 17.1814 10.4806 17.1814H7.8107C7.59569 17.1814 7.38948 17.2668 7.23745 17.4188C7.08541 17.5707 7 17.7769 7 17.9918C7 18.2067 7.08541 18.4129 7.23745 18.5649C7.38948 18.7168 7.59569 18.8022 7.8107 18.8022H10.486C10.7001 18.8008 10.9049 18.7148 11.0558 18.563C11.2066 18.4111 11.2913 18.2058 11.2913 17.9918Z" fill="white"/>
<path d="M44 17.3161C44.0194 15.2334 44.6973 13.2114 45.9349 11.5446C47.1725 9.87778 48.9051 8.65331 50.8803 8.04956C50.9829 7.99807 51.1006 7.98623 51.2112 8.01625C51.3219 8.04628 51.4178 8.11611 51.481 8.21258C51.5369 8.31283 51.5551 8.43003 51.5324 8.54275C51.5097 8.65547 51.4476 8.75617 51.3573 8.82644C50.1256 10.0574 49.3443 11.6739 49.1413 13.4113C48.7955 16.5469 49.8556 19.1271 52.372 21.0273C53.6462 21.9811 55.1761 22.5243 56.7614 22.5856C58.3467 22.647 59.9134 22.2237 61.2563 21.3712C61.3339 21.2871 61.4415 21.2376 61.5553 21.2335C61.6692 21.2294 61.78 21.2712 61.8633 21.3495C61.9466 21.4279 61.9957 21.5365 61.9997 21.6514C62.0038 21.7662 61.9624 21.878 61.8847 21.9621C60.2997 24.7946 57.9221 26.5012 54.7218 26.9214C49.79 27.571 45.1484 24.1221 44.2272 19.1755C44.1136 18.5617 44.0732 17.9427 44 17.3161Z" fill="#D2D6E1"/>
</g>
<defs>
<filter id="filter0_dd_61_4112" x="-6" y="-6" width="48" height="48" filterUnits="userSpaceOnUse" color-interpolation-filters="sRGB">
<feFlood flood-opacity="0" result="BackgroundImageFix"/>
<feColorMatrix in="SourceAlpha" type="matrix" values="0 0 0 0 0 0 0 0 0 0 0 0 0 0 0 0 0 0 127 0" result="hardAlpha"/>
<feOffset/>
<feGaussianBlur stdDeviation="4"/>
<feComposite in2="hardAlpha" operator="out"/>
<feColorMatrix type="matrix" values="0 0 0 0 0.568627 0 0 0 0 0.329412 0 0 0 0 0.992157 0 0 0 0.4 0"/>
<feBlend mode="normal" in2="BackgroundImageFix" result="effect1_dropShadow_61_4112"/>
<feColorMatrix in="SourceAlpha" type="matrix" values="0 0 0 0 0 0 0 0 0 0 0 0 0 0 0 0 0 0 127 0" result="hardAlpha"/>
<feOffset dy="1"/>
<feGaussianBlur stdDeviation="0.5"/>
<feComposite in2="hardAlpha" operator="out"/>
<feColorMatrix type="matrix" values="0 0 0 0 0.568627 0 0 0 0 0.329412 0 0 0 0 0.992157 0 0 0 0.4 0"/>
<feBlend mode="normal" in2="effect1_dropShadow_61_4112" result="effect2_dropShadow_61_4112"/>
<feBlend mode="normal" in="SourceGraphic" in2="effect2_dropShadow_61_4112" result="shape"/>
</filter>
<clipPath id="clip0_61_4112">
<rect width="71" height="36" rx="10" fill="white"/>
</clipPath>
</defs>
</svg>
